<?xml version="1.0" encoding="utf-8"?>
<!-- Generator: Adobe Illustrator 21.0.0, SVG Export Plug-In . SVG Version: 6.00 Build 0)  -->
<svg version="1.1" id="Layer_1" xmlns="http://www.w3.org/2000/svg" xmlns:xlink="http://www.w3.org/1999/xlink" x="0px" y="0px"
	 width="2000px" height="2000px" viewBox="0 0 2000 2000" style="enable-background:new 0 0 2000 2000;" xml:space="preserve">
<style type="text/css">
	.st0{fill:#FFEDE1;}
	.st1{fill:#FC97B7;}
	.st2{fill:#FF7C9E;}
	.st3{fill:#3A56C3;}
	.st4{fill:#6282DD;}
	.st5{fill:#4968CE;}
	.st6{fill:#7F3D2E;}
	.st7{fill:url(#SVGID_1_);}
	.st8{fill:url(#SVGID_2_);}
	.st9{fill:url(#SVGID_3_);}
	.st10{fill:url(#SVGID_4_);}
	.st11{fill:url(#SVGID_5_);}
	.st12{fill:url(#SVGID_6_);}
	.st13{fill:url(#SVGID_7_);}
	.st14{fill:url(#SVGID_8_);}
	.st15{fill:url(#SVGID_9_);}
	.st16{fill:url(#SVGID_10_);}
	.st17{fill:url(#SVGID_11_);}
	.st18{fill:url(#SVGID_12_);}
	.st19{fill:url(#SVGID_13_);}
	.st20{fill:url(#SVGID_14_);}
	.st21{fill:url(#SVGID_15_);}
	.st22{fill:url(#SVGID_16_);}
	.st23{fill:url(#SVGID_17_);}
	.st24{fill:url(#SVGID_18_);}
	.st25{fill:url(#SVGID_19_);}
	.st26{fill:url(#SVGID_20_);}
	.st27{fill:url(#SVGID_21_);}
	.st28{fill:url(#SVGID_22_);}
	.st29{fill:url(#SVGID_23_);}
	.st30{fill:url(#SVGID_24_);}
	.st31{fill:url(#SVGID_25_);}
	.st32{fill:url(#SVGID_26_);}
	.st33{fill:url(#SVGID_27_);}
	.st34{fill:url(#SVGID_28_);}
	.st35{fill:url(#SVGID_29_);}
	.st36{fill:url(#SVGID_30_);}
	.st37{fill:url(#SVGID_31_);}
	.st38{fill:url(#SVGID_32_);}
	.st39{fill:#DB4F82;}
	.st40{fill:#FFFFFF;}
	.st41{fill:#E26196;}
	.st42{fill:#FFE3CE;}
</style>
<g>
	<rect class="st0" width="1999.5" height="1999.5"/>
	<path class="st1" d="M1867.9,1367.5c-19-106.2-67.9-203.3-103.1-304.5c-18.5-53.3-33.5-108.3-38-164.8c-4.8-61.1,4-121.9,15-181.9
		c19.5-106.3,46.4-218.2,14.7-325.1c-13.7-46.1-38.9-87.9-75.2-119.7c-34.3-30-76.5-51-121.3-59.7c-50.2-9.8-99.4-1.3-147.6,13.8
		c-52.5,16.4-103.6,37.4-159,42c-97.2,7.9-191-26.7-279.2-63.5c-90.2-37.6-180.3-80.9-277.7-96.2c-98.1-15.4-199.4,3.7-285.3,53.6
		C324.5,211.9,258.7,292.8,225,387.3c-16.8,47-25.5,97-25.1,147c0.4,51.4,10.6,102.2,24.3,151.6c27.9,100.9,72,199.1,81.3,304.3
		c4.5,51.4-1.1,102.2-17.3,151.1c-15.6,47-38.7,91-61.7,134.7c-43.5,82.6-90.7,170.6-83.5,267c6.6,88.7,55.6,173.2,128.6,223.8
		c89,61.7,202.6,59.9,305,42.1c58.4-10.1,115.7-25.4,173.8-36.7c53.6-10.4,110.6-20,165.3-12.7c34.9,4.7,71.4,17.5,93.3,45.4
		c-0.2,0.1-0.5,0.3-0.7,0.4c-2.8,1.7-0.2,6.2,2.6,4.4c0.4-0.2,0.8-0.5,1.2-0.7c3,4.3,5.6,8.8,7.8,13.7c1.4,3,5.8,0.4,4.4-2.6
		c-2.3-4.9-4.9-9.5-7.9-13.8c88.9-53.4,196-56,296.9-50c97.1,5.7,193.8,19,290.9,5.2c87.8-12.6,174-49.1,224.7-125.1
		C1881.2,1558,1884.1,1457.7,1867.9,1367.5z"/>
	<g>
		<circle class="st2" cx="1081.2" cy="1649.8" r="20.5"/>
		<circle class="st2" cx="1081.2" cy="1221.2" r="20.5"/>
		<circle class="st2" cx="1081.2" cy="1435.5" r="20.5"/>
		<circle class="st2" cx="1237.5" cy="1563.2" r="20.5"/>
		<circle class="st2" cx="1237.5" cy="920.2" r="20.5"/>
		<circle class="st2" cx="1237.5" cy="1134.5" r="20.5"/>
		<circle class="st2" cx="1081.2" cy="792.5" r="20.5"/>
		<circle class="st2" cx="1237.5" cy="705.9" r="20.5"/>
		<circle class="st2" cx="1237.5" cy="491.5" r="20.5"/>
		<circle class="st2" cx="1081.2" cy="1006.8" r="20.5"/>
		<circle class="st2" cx="1381.1" cy="792.5" r="20.5"/>
		<circle class="st2" cx="781.3" cy="363.8" r="20.5"/>
		<circle class="st2" cx="1381.1" cy="363.8" r="20.5"/>
		<circle class="st2" cx="781.3" cy="578.2" r="20.5"/>
		<circle class="st2" cx="1381.1" cy="578.2" r="20.5"/>
		<circle class="st2" cx="1381.1" cy="1006.8" r="20.5"/>
		<circle class="st2" cx="1381.1" cy="1221.2" r="20.5"/>
		<circle class="st2" cx="1081.2" cy="363.8" r="20.5"/>
		<circle class="st2" cx="1081.2" cy="578.2" r="20.5"/>
		<circle class="st2" cx="1681" cy="578.2" r="20.5"/>
		<circle class="st2" cx="1681" cy="363.8" r="20.5"/>
		<circle class="st2" cx="1681" cy="1649.8" r="20.5"/>
		<circle class="st2" cx="1837.4" cy="1348.8" r="20.5"/>
		<circle class="st2" cx="1681" cy="1221.2" r="20.5"/>
		<circle class="st2" cx="1837.4" cy="1563.2" r="20.5"/>
		<circle class="st2" cx="1681" cy="1006.8" r="20.5"/>
		<circle class="st2" cx="1681" cy="792.5" r="20.5"/>
		<circle class="st2" cx="1537.5" cy="277.2" r="20.5"/>
		<path class="st2" d="M1537.5,1757c-7.8,0-14.6,4.4-18.1,10.8c11.8-0.1,23.6-0.5,35.4-1.2C1551.2,1760.8,1544.8,1757,1537.5,1757z"
			/>
		<circle class="st2" cx="1537.5" cy="491.5" r="20.5"/>
		<path class="st2" d="M1218.9,268.6c-1.2,2.6-1.9,5.5-1.9,8.6c0,11.3,9.2,20.5,20.5,20.5c11.3,0,20.5-9.2,20.5-20.5
			c0-3.6-0.9-6.9-2.5-9.8c-0.7,0.1-1.4,0.1-2,0.2C1241.9,268.5,1230.4,268.8,1218.9,268.6z"/>
		<circle class="st2" cx="1537.5" cy="1134.5" r="20.5"/>
		<circle class="st2" cx="1237.5" cy="1348.8" r="20.5"/>
		<circle class="st2" cx="1537.5" cy="705.9" r="20.5"/>
		<circle class="st2" cx="1537.5" cy="920.2" r="20.5"/>
		<circle class="st2" cx="1381.1" cy="1649.8" r="20.5"/>
		<path class="st2" d="M201.9,1649.8c0-11.3-9.2-20.5-20.5-20.5c-6.2,0-11.8,2.8-15.5,7.1c5,11.6,10.6,22.9,17,33.8
			C193.5,1669.5,201.9,1660.6,201.9,1649.8z"/>
		<circle class="st2" cx="781.3" cy="792.5" r="20.5"/>
		<circle class="st2" cx="481.3" cy="1435.5" r="20.5"/>
		<circle class="st2" cx="481.3" cy="1006.8" r="20.5"/>
		<circle class="st2" cx="181.4" cy="1435.5" r="20.5"/>
		<circle class="st2" cx="337.8" cy="705.9" r="20.5"/>
		<circle class="st2" cx="337.8" cy="920.2" r="20.5"/>
		<circle class="st2" cx="481.3" cy="363.8" r="20.5"/>
		<circle class="st2" cx="637.7" cy="491.5" r="20.5"/>
		<circle class="st2" cx="637.7" cy="1134.5" r="20.5"/>
		<circle class="st2" cx="337.8" cy="1134.5" r="20.5"/>
		<circle class="st2" cx="637.7" cy="1563.2" r="20.5"/>
		<circle class="st2" cx="481.3" cy="1649.8" r="20.5"/>
		<circle class="st2" cx="637.7" cy="277.2" r="20.5"/>
		<circle class="st2" cx="637.7" cy="1348.8" r="20.5"/>
		<circle class="st2" cx="481.3" cy="1221.2" r="20.5"/>
		<circle class="st2" cx="937.6" cy="1348.8" r="20.5"/>
		<circle class="st2" cx="937.6" cy="705.9" r="20.5"/>
		<circle class="st2" cx="937.6" cy="1134.5" r="20.5"/>
		<circle class="st2" cx="937.6" cy="920.2" r="20.5"/>
		<circle class="st2" cx="781.3" cy="149.5" r="20.5"/>
		<circle class="st2" cx="781.3" cy="1649.8" r="20.5"/>
		<circle class="st2" cx="781.3" cy="1006.8" r="20.5"/>
		<circle class="st2" cx="781.3" cy="1221.2" r="20.5"/>
		<circle class="st2" cx="781.3" cy="1435.5" r="20.5"/>
		<path class="st2" d="M937.6,1757c-4.7,0-8.9,1.6-12.4,4.2c10.5,1.9,21.1,4.5,31.2,8.2C953.3,1762,946,1757,937.6,1757z"/>
		<circle class="st2" cx="937.6" cy="491.5" r="20.5"/>
		<circle class="st2" cx="337.8" cy="1563.2" r="20.5"/>
		<circle class="st2" cx="337.8" cy="1777.5" r="20.5"/>
		<path class="st2" d="M460.8,149.5c0,11.3,9.2,20.5,20.5,20.5s20.5-9.2,20.5-20.5s-9.2-20.5-20.5-20.5c-0.1,0-0.3,0-0.4,0
			c-4.3,1.6-8.6,3.2-12.9,4.9C463.6,137.7,460.8,143.3,460.8,149.5z"/>
		<circle class="st2" cx="337.8" cy="277.2" r="20.5"/>
		<circle class="st2" cx="937.6" cy="277.2" r="20.5"/>
		<circle class="st2" cx="937.6" cy="1563.2" r="20.5"/>
		<path class="st2" d="M658.2,1777.5c0-11.3-9.2-20.5-20.5-20.5s-20.5,9.2-20.5,20.5c0,10.1,7.3,18.5,16.9,20.2
			c5.1-1.1,10.3-2.2,15.4-3.4C654.7,1790.6,658.2,1784.4,658.2,1777.5z"/>
		<circle class="st2" cx="337.8" cy="1348.8" r="20.5"/>
	</g>
	<g>
		<path class="st3" d="M513.7,684.7c1.2,0.5,2.5,0.4,3.6-0.2c0.7-0.4,1.4-1.1,1.7-1.9c0.9-2-0.1-4.4-2.1-5.3l-63.6-27.1
			c-2-0.9-4.4,0.1-5.3,2.1c-0.9,2,0.1,4.4,2.1,5.3L513.7,684.7z"/>
		<path class="st3" d="M585.6,809.1c1.2,0.5,2.5,0.4,3.6-0.2c0.7-0.4,1.4-1.1,1.7-1.9c0.9-2-0.1-4.4-2.1-5.3l-63.6-27.1
			c-2-0.9-4.4,0.1-5.3,2.1c-0.9,2,0.1,4.4,2.1,5.3L585.6,809.1z"/>
		<path class="st3" d="M657.5,933.6c1.2,0.5,2.5,0.4,3.6-0.2c0.7-0.4,1.4-1.1,1.7-1.9c0.9-2-0.1-4.4-2.1-5.3l-63.6-27.1
			c-2-0.9-4.4,0.1-5.3,2.1c-0.9,2,0.1,4.4,2.1,5.3L657.5,933.6z"/>
		<path class="st3" d="M517.3,684.5c1.1-0.6,1.8-1.7,2-3l9.4-68.5c0.3-2.2-1.2-4.2-3.4-4.5c-2.2-0.3-4.2,1.2-4.5,3.4l-9.4,68.5
			c-0.3,2.2,1.2,4.2,3.4,4.5C515.6,685.1,516.5,684.9,517.3,684.5z"/>
		<path class="st3" d="M587.2,810.1c1.1-0.6,1.8-1.7,2-3l9.4-68.5c0.3-2.2-1.2-4.2-3.4-4.5c-2.2-0.3-4.2,1.2-4.5,3.4l-9.4,68.5
			c-0.3,2.2,1.2,4.2,3.4,4.5C585.6,810.7,586.5,810.5,587.2,810.1z"/>
		<path class="st3" d="M657.1,935.6c1.1-0.6,1.8-1.7,2-3l9.4-68.5c0.3-2.2-1.2-4.2-3.4-4.5c-2.2-0.3-4.2,1.2-4.5,3.4l-9.4,68.5
			c-0.3,2.2,1.2,4.2,3.4,4.5C655.5,936.2,656.4,936,657.1,935.6z"/>
		<path class="st4" d="M446.1,559.1c10.3-24.8,9.4-54-4.9-79.2c-14.3-25.2-38.8-40.9-65.4-44.8c-10.3,24.8-9.4,54,4.9,79.2
			C395,539.4,419.5,555.1,446.1,559.1z"/>
		<path class="st5" d="M446.1,559.1c6.5-15.6,5.9-34-3.1-49.9c-9-15.9-24.5-25.8-41.2-28.2c-6.5,15.6-5.9,34,3.1,49.9
			C413.9,546.7,429.4,556.6,446.1,559.1z"/>
		<path class="st4" d="M461.1,657.9c-10.3-24.8-31.5-44.8-59.5-52.5c-27.9-7.7-56.4-1.4-78,14.6c10.3,24.8,31.5,44.8,59.5,52.5
			C411,680.2,439.5,673.9,461.1,657.9z"/>
		<path class="st5" d="M461.1,657.9c-6.5-15.6-19.9-28.2-37.4-33.1c-17.6-4.9-35.5-0.9-49.1,9.2c6.5,15.6,19.9,28.2,37.4,33.1
			C429.6,671.9,447.5,668,461.1,657.9z"/>
		<path class="st4" d="M533,782.4c-10.3-24.8-31.5-44.8-59.5-52.5c-27.9-7.7-56.4-1.4-78,14.6c10.3,24.8,31.5,44.8,59.5,52.5
			C482.9,804.6,511.4,798.4,533,782.4z"/>
		<path class="st5" d="M533,782.4c-6.5-15.6-19.9-28.2-37.4-33.1c-17.6-4.9-35.5-0.9-49.1,9.2c6.5,15.6,19.9,28.2,37.4,33.1
			C501.5,796.4,519.4,792.4,533,782.4z"/>
		<path class="st4" d="M604.9,906.8c-10.3-24.8-31.5-44.8-59.5-52.5c-27.9-7.7-56.4-1.4-78,14.6c10.3,24.8,31.5,44.8,59.5,52.5
			C554.8,929.1,583.3,922.8,604.9,906.8z"/>
		<path class="st5" d="M604.9,906.8c-6.5-15.6-19.9-28.2-37.4-33.1c-17.6-4.9-35.5-0.9-49.1,9.2c6.5,15.6,19.9,28.2,37.4,33.1
			C573.4,920.8,591.3,916.9,604.9,906.8z"/>
		<path class="st4" d="M575.8,563.2c7.7-27.9,1.4-56.4-14.6-78c-24.8,10.3-44.8,31.5-52.5,59.5c-7.7,27.9-1.4,56.4,14.6,78
			C548.1,612.3,568.1,591.1,575.8,563.2z"/>
		<path class="st5" d="M556.3,585.2c4.9-17.6,0.9-35.5-9.2-49.1c-15.6,6.5-28.2,19.9-33.1,37.4c-4.9,17.6-0.9,35.5,9.2,49.1
			C538.9,616.1,551.5,602.8,556.3,585.2z"/>
		<path class="st4" d="M645.7,688.7c7.7-27.9,1.4-56.4-14.6-78c-24.8,10.3-44.8,31.5-52.5,59.5c-7.7,27.9-1.4,56.4,14.6,78
			C618,737.9,638,716.7,645.7,688.7z"/>
		<path class="st5" d="M626.3,710.8c4.9-17.6,0.9-35.5-9.2-49.1c-15.6,6.5-28.2,19.9-33.1,37.4c-4.9,17.6-0.9,35.5,9.2,49.1
			C608.8,741.7,621.4,728.3,626.3,710.8z"/>
		<path class="st4" d="M715.6,814.3c7.7-27.9,1.4-56.4-14.6-78c-24.8,10.3-44.8,31.5-52.5,59.5c-7.7,27.9-1.4,56.4,14.6,78
			C687.9,863.4,707.9,842.2,715.6,814.3z"/>
		<path class="st5" d="M696.2,836.3c4.9-17.6,0.9-35.5-9.2-49.1c-15.6,6.5-28.2,19.9-33.1,37.4c-4.9,17.6-0.9,35.5,9.2,49.1
			C678.8,867.3,691.3,853.9,696.2,836.3z"/>
		<path class="st3" d="M707.9,1012.4L447.8,553.8c-1.1-1.9-3.6-2.6-5.5-1.5s-2.6,3.6-1.5,5.5L698.4,1012L707.9,1012.4z"/>
	</g>
	<g>
		<path class="st3" d="M1601.8,1430.6c-0.2,1,0.1,1.9,0.7,2.6c0.4,0.5,1,0.8,1.7,1c1.6,0.3,3.2-0.7,3.5-2.4l10.1-50.7
			c0.3-1.6-0.7-3.2-2.4-3.5c-1.6-0.3-3.2,0.7-3.5,2.4L1601.8,1430.6z"/>
		<path class="st3" d="M1521.6,1502.3c-0.2,1,0.1,1.9,0.7,2.6c0.4,0.5,1,0.8,1.7,1c1.6,0.3,3.2-0.7,3.5-2.4l10.1-50.7
			c0.3-1.6-0.7-3.2-2.4-3.5c-1.6-0.3-3.2,0.7-3.5,2.4L1521.6,1502.3z"/>
		<path class="st3" d="M1441.5,1573.9c-0.2,1,0.1,1.9,0.7,2.6c0.4,0.5,1,0.8,1.7,1c1.6,0.3,3.2-0.7,3.5-2.4l10.1-50.7
			c0.3-1.6-0.7-3.2-2.4-3.5c-1.6-0.3-3.2,0.7-3.5,2.4L1441.5,1573.9z"/>
		<path class="st3" d="M1602.5,1433.2c0.6,0.7,1.5,1.1,2.5,1l51.6-3.6c1.7-0.1,2.9-1.6,2.8-3.2c-0.1-1.7-1.6-2.9-3.2-2.8l-51.6,3.6
			c-1.7,0.1-2.9,1.6-2.8,3.2C1601.8,1432.1,1602.1,1432.7,1602.5,1433.2z"/>
		<path class="st3" d="M1521.2,1503.6c0.6,0.7,1.5,1.1,2.5,1l51.6-3.6c1.7-0.1,2.9-1.6,2.8-3.2c-0.1-1.7-1.6-2.9-3.2-2.8l-51.6,3.6
			c-1.7,0.1-2.9,1.6-2.8,3.2C1520.5,1502.5,1520.8,1503.1,1521.2,1503.6z"/>
		<path class="st3" d="M1439.9,1574c0.6,0.7,1.5,1.1,2.5,1l51.6-3.6c1.7-0.1,2.9-1.6,2.8-3.2c-0.1-1.7-1.6-2.9-3.2-2.8l-51.6,3.6
			c-1.7,0.1-2.9,1.6-2.8,3.2C1439.3,1572.9,1439.5,1573.5,1439.9,1574z"/>
		<path class="st4" d="M1683.5,1361.9c19.8,3.7,41-1.4,57.2-15.7c16.3-14.3,24-34.7,22.8-54.8c-19.8-3.7-41,1.4-57.2,15.7
			C1690.1,1321.5,1682.3,1341.9,1683.5,1361.9z"/>
		<path class="st5" d="M1683.5,1361.9c12.4,2.3,25.8-0.9,36-9.9c10.2-9,15.1-21.8,14.4-34.5c-12.4-2.3-25.8,0.9-36,9.9
			C1687.6,1336.4,1682.8,1349.3,1683.5,1361.9z"/>
		<path class="st4" d="M1613.4,1388c16.6-11.3,28-29.9,29.4-51.6s-7.6-41.5-22.6-54.9c-16.6,11.3-28,29.9-29.4,51.6
			S1598.4,1374.6,1613.4,1388z"/>
		<path class="st5" d="M1613.4,1388c10.5-7.1,17.6-18.9,18.5-32.5c0.9-13.6-4.8-26.1-14.2-34.6c-10.5,7.1-17.6,18.9-18.5,32.5
			C1598.3,1367,1603.9,1379.6,1613.4,1388z"/>
		<path class="st4" d="M1533.2,1459.6c16.6-11.3,28-29.9,29.4-51.6c1.4-21.6-7.6-41.5-22.6-54.9c-16.6,11.3-28,29.9-29.4,51.6
			C1509.3,1426.4,1518.2,1446.3,1533.2,1459.6z"/>
		<path class="st5" d="M1533.2,1459.6c10.5-7.1,17.6-18.9,18.5-32.5c0.9-13.6-4.8-26.1-14.2-34.6c-10.5,7.1-17.6,18.9-18.5,32.5
			C1518.1,1438.7,1523.8,1451.2,1533.2,1459.6z"/>
		<path class="st4" d="M1453.1,1531.3c16.6-11.3,28-29.9,29.4-51.6c1.4-21.6-7.6-41.5-22.6-54.9c-16.6,11.3-28,29.9-29.4,51.6
			S1438.1,1517.9,1453.1,1531.3z"/>
		<path class="st5" d="M1453.1,1531.3c10.5-7.1,17.6-18.9,18.5-32.5s-4.8-26.1-14.2-34.6c-10.5,7.1-17.6,18.9-18.5,32.5
			C1438,1510.4,1443.6,1522.9,1453.1,1531.3z"/>
		<path class="st4" d="M1700.3,1457.5c21.6,1.4,41.5-7.6,54.9-22.6c-11.3-16.6-29.9-28-51.6-29.4c-21.6-1.4-41.5,7.6-54.9,22.6
			C1660.1,1444.7,1678.7,1456.1,1700.3,1457.5z"/>
		<path class="st5" d="M1681.2,1446.6c13.6,0.9,26.1-4.8,34.6-14.2c-7.1-10.5-18.9-17.6-32.5-18.5c-13.6-0.9-26.1,4.8-34.6,14.2
			C1655.9,1438.6,1667.6,1445.8,1681.2,1446.6z"/>
		<path class="st4" d="M1619,1527.9c21.6,1.4,41.5-7.6,54.9-22.6c-11.3-16.6-29.9-28-51.6-29.4c-21.6-1.4-41.5,7.6-54.9,22.6
			C1578.8,1515.1,1597.4,1526.5,1619,1527.9z"/>
		<path class="st5" d="M1599.9,1517c13.6,0.9,26.1-4.8,34.6-14.2c-7.1-10.5-18.9-17.6-32.5-18.5c-13.6-0.9-26.1,4.8-34.6,14.2
			C1574.6,1509,1586.3,1516.1,1599.9,1517z"/>
		<path class="st4" d="M1537.7,1598.3c21.6,1.4,41.5-7.6,54.9-22.6c-11.3-16.6-29.9-28-51.6-29.4c-21.6-1.4-41.5,7.6-54.9,22.6
			C1497.5,1585.5,1516.1,1596.9,1537.7,1598.3z"/>
		<path class="st5" d="M1518.6,1587.4c13.6,0.9,26.1-4.8,34.6-14.2c-7.1-10.5-18.9-17.6-32.5-18.5s-26.1,4.8-34.6,14.2
			C1493.3,1579.4,1505,1586.5,1518.6,1587.4z"/>
		<path class="st3" d="M1391.4,1622.9l296.2-260.6c1.3-1.1,1.4-3,0.3-4.3c-1.1-1.3-3-1.4-4.3-0.3l-293.3,258.1L1391.4,1622.9z"/>
	</g>
	<g>
		<path class="st6" d="M1522.6,1133.3c-6.5-19.4-19.8-35.6-23.7-56c-3.4-18-0.8-36.6,3-54.3c7.1-33.6,20.6-68.3,15-103.1
			c-6.3-39-39.7-56.6-64-83.5c-27.9-30.9-30.8-74.3-26.7-113.8c4.4-43,17.8-84.6,18.8-128c0.9-40.2-11.1-78.5-40.5-106.8
			c-29.1-28-68.1-42.1-107.9-45.6c-81.3-7.2-165.3,22.8-231.5,68.6c-67.8,46.9-120.1,113-153.9,188c-17,37.8-29.6,77.6-37.6,118.3
			c-7.4,37.8-16,82.7,14.6,112.8c28.2,27.8,69.4,32,102.7,50.9c37.8,21.5,49.1,65.4,73.2,98.8c44.7,62,112.9,100.9,188.1,111.4
			c37.3,5.2,80.5,6.6,110.7,32c12.8,10.7,23.1,28.6,42,27.9c18.3-0.7,30.2-17,38.9-31c5.4-8.7,10.8-18.6,19.8-24.1
			c5.3-3.2,11.7-4.9,17.6-3.8c2.2,1.5,4.5,2.5,6.8,2.9c1.1,0.8,2.1,1.7,3,2.8c3,3.6,7.8,0,7.4-3.8c6.5-2.3,12.5-7.3,17-12.5
			C1527.2,1167.6,1528.2,1150.1,1522.6,1133.3z"/>
		<linearGradient id="SVGID_1_" gradientUnits="userSpaceOnUse" x1="1437.9172" y1="1771.3005" x2="1307.5254" y2="1437.4058">
			<stop  offset="0" style="stop-color:#FFB49F"/>
			<stop  offset="1" style="stop-color:#EA8B75"/>
		</linearGradient>
		<path class="st7" d="M1244,1055.4c0,0,65.1,41.8,88.4,124.2c23.3,82.4,89.6,481.8,132.6,557.1c43,75.2,112.1,262.9,112.1,262.9
			h-148c0,0-53.7-103.5-68.1-157.2c-14.3-53.7-73.6-228.1-111.1-254.6c-37.5-26.6-66.2-191.4-66.2-191.4L1244,1055.4z"/>
		<g>
			<linearGradient id="SVGID_2_" gradientUnits="userSpaceOnUse" x1="1401.6357" y1="1231.6838" x2="1279.7985" y2="1309.4878">
				<stop  offset="0" style="stop-color:#FFE3CE"/>
				<stop  offset="1" style="stop-color:#FCC8A4"/>
			</linearGradient>
			<path class="st8" d="M1424.5,1368.4c-0.9-22.5-9-45.7-14.8-67.4c-23.1-87.5-61.7-182.2-144.1-228.1
				c-12.6-11.6-21.7-17.5-21.7-17.5l-1.6,8.9c-6.6,2.3-10,11.7-2.7,15.5l-13.6,76.8c-27.8,57.4-64.3,111.2-79.3,173.9
				c-19.8,82.4-7.2,172,34.6,245.7c5.2,9.1,10.8,18.1,17,26.6c5.3,7.3,11.6,14.4,21,15.8c20.4,2.9,35.4-24.2,44-38.9
				c4.8-8.3,8.7-17,12.4-25.8c3.7-8.7,7.6-19.5,15.7-25.2c8.9-6.2,20.8-3.5,30.9-3.6c9.5,0,19-1.6,27.1-6.9
				c15.2-9.9,22.8-28.3,26.5-45.4c4.2-19.4,4.4-42.8,20.1-57.1c7.3-6.6,16.1-11.3,21.7-19.7
				C1423.1,1388,1424.9,1378.1,1424.5,1368.4z"/>
			<g>
				<linearGradient id="SVGID_3_" gradientUnits="userSpaceOnUse" x1="1310.8066" y1="1514.9102" x2="1309.4366" y2="1525.438">
					<stop  offset="0" style="stop-color:#FF7C9E"/>
					<stop  offset="1" style="stop-color:#EF5E8B"/>
				</linearGradient>
				<path class="st9" d="M1313.5,1517.3c-2.2-2.3-5.8-5.7-9.2-3.6c-2.9,1.8-3.7,6.1-4.3,9.1c-0.2,0.9-0.3,1.7-0.4,2.6
					c6.3-1.3,13.2-0.5,19.6-0.2C1317.8,1522.3,1315.9,1519.7,1313.5,1517.3z"/>
				<linearGradient id="SVGID_4_" gradientUnits="userSpaceOnUse" x1="1422.3744" y1="1362.7456" x2="1420.7284" y2="1375.3936">
					<stop  offset="0" style="stop-color:#FF7C9E"/>
					<stop  offset="1" style="stop-color:#EF5E8B"/>
				</linearGradient>
				<path class="st10" d="M1424.5,1368.4c-0.1-2.4-0.3-4.8-0.5-7.2c-2.7,3.4-4.9,7.3-6.5,11.6c-0.9,2.2,0.9,4.3,3.2,3.8
					c1.2-0.3,2.5-0.7,3.7-1C1424.6,1373.2,1424.6,1370.8,1424.5,1368.4z"/>
				<linearGradient id="SVGID_5_" gradientUnits="userSpaceOnUse" x1="1270.1243" y1="1547.3809" x2="1267.5839" y2="1566.9021">
					<stop  offset="0" style="stop-color:#FF7C9E"/>
					<stop  offset="1" style="stop-color:#EF5E8B"/>
				</linearGradient>
				<path class="st11" d="M1269.5,1550.9c-4.3,3.2-9.3,7.8-10.4,13.3c-0.1,0.5,0.2,1,0.6,1.2c3,1.5,6,2.8,9.1,3.9
					c2.4-5,4.7-10.1,6.8-15.3c1.1-2.6,2.2-5.3,3.4-8.1C1275.7,1547.1,1272.4,1548.7,1269.5,1550.9z"/>
				<linearGradient id="SVGID_6_" gradientUnits="userSpaceOnUse" x1="1374.512" y1="1218.6908" x2="1363.6812" y2="1301.9169">
					<stop  offset="0" style="stop-color:#FF7C9E"/>
					<stop  offset="1" style="stop-color:#EF5E8B"/>
				</linearGradient>
				<path class="st12" d="M1396.8,1280.2c3.8,6.7,8,13.1,12.5,19.3c-1.4-5.4-2.9-10.9-4.5-16.3c-0.3-0.5-0.7-1-1-1.6
					c0.2,0.1,0.4,0.3,0.6,0.4c-6.1-21.3-13.3-42.7-21.9-63.6c-5.4-4-11.2-7.5-16.3-11.9c-0.6-0.5-1.7-0.1-1.7,0.7
					c-0.8,16.7-1,36.2,10.3,49.2c-1.2-0.5-2.4-0.9-3.5-1.4c-3.3-1.3-6.6-2.3-10-2.9c-7.2-1.3-14.7-1.1-21.9,0.5
					c-3.4,0.8-6.7,1.9-9.9,3.3c-2.4,1.1-6.6,2.5-6,5.8c0.5,2.8,3.7,5.2,5.7,7c2.5,2.2,5.3,4.1,8.3,5.7c5.9,3.2,12.6,5.2,19.3,5.8
					c4.7,0.4,9.6,0.2,14.2-0.8c-2.8,7.8-3.5,16.4-1.7,24.5c0.7,3.2,1.6,8.5,5.9,8.5c3.7,0,7.7-3.4,10.3-5.7
					c6.4-5.9,10.7-14.2,11.2-22.9C1396.9,1282.8,1396.9,1281.5,1396.8,1280.2z"/>
				<linearGradient id="SVGID_7_" gradientUnits="userSpaceOnUse" x1="1344.1536" y1="1412.0432" x2="1330.884" y2="1514.0084">
					<stop  offset="0" style="stop-color:#FF7C9E"/>
					<stop  offset="1" style="stop-color:#EF5E8B"/>
				</linearGradient>
				<path class="st13" d="M1378.1,1460.6c-13.1-8.1-27.3-13.2-42.6-15.6c-2.7-16.5-7.3-32.8-13.9-48.5c-1.3-3.2-6-0.5-4.7,2.7
					c6.3,15,10.7,30.5,13.3,46.4c-0.1,0.1-0.1,0.2-0.2,0.3c-8.4,1.2-16.2,4.7-22.5,10.6c-6,5.6-13.8,16.4-11.9,25.3
					c1.7,8.4,9.6,4.6,14,0.8c9-7.7,16.3-17,22-27.3c2.6,23.2,1.4,46.7-3.8,69.6c1.9-0.1,3.8-0.4,5.7-0.7c4.6-21.2,5.9-42.9,4-64.3
					c10.3,9.9,24.5,14.1,38.8,11C1376.9,1467.6,1377.5,1464.2,1378.1,1460.6z"/>
			</g>
		</g>
		<linearGradient id="SVGID_8_" gradientUnits="userSpaceOnUse" x1="636.8144" y1="1680.6858" x2="644.6849" y2="1349.037">
			<stop  offset="0" style="stop-color:#FFB49F"/>
			<stop  offset="1" style="stop-color:#EA8B75"/>
		</linearGradient>
		<path class="st14" d="M622.4,936.6c0,0-79.3,0-90.8,196.4c-10.4,179-9,376.1-19.7,431.7c-10.7,55.5-48.4,262.5-32.2,434.9h132.5
			c0,0,57.4-169,53.7-291.6c-1.7-58.3,6.4-256,23.8-310.7s117.7-335.9,117.7-335.9L622.4,936.6z"/>
		<linearGradient id="SVGID_9_" gradientUnits="userSpaceOnUse" x1="1000.9741" y1="1454.208" x2="1284.2521" y2="764.3867">
			<stop  offset="0" style="stop-color:#FFB49F"/>
			<stop  offset="1" style="stop-color:#EA8B75"/>
		</linearGradient>
		<path class="st15" d="M1034.8,691.8c0,0-32.7,166-86.4,182.7c-53.7,16.7-326,62.1-326,62.1s55.4,178.3,68.7,228.7
			c14.7,55.7,21,130.9,36.2,219.6c16,93.2,62.3,233.6,28.3,339.3c-34,105.7-89.6,169.4-91.3,275.4h703.9c0,0-58.4-170.8-114.6-246.8
			c-51-69-39.7-218.4,6.6-256c47.2-38.2,109.8-104.1,59.9-213.3c-49.3-107.9-26.9-187.9-76.1-228.1c-21-17.1-80-22.7-80-80
			c0-57.3,59.1-132.5,59.1-132.5L1034.8,691.8z"/>
		<linearGradient id="SVGID_10_" gradientUnits="userSpaceOnUse" x1="1219.0138" y1="707.1674" x2="1352.2726" y2="298.2794">
			<stop  offset="0" style="stop-color:#FFB49F"/>
			<stop  offset="1" style="stop-color:#EA8B75"/>
		</linearGradient>
		<path class="st16" d="M1365.2,413.6c0,0-177.9-27.5-230.5,51.3c-52.5,78.8-114.6,149.3-96.7,256.7s47.8,186.3,133.7,167.2
			c86-19.1,151.7-43,207.8-136.1s114.4-187.4,69.3-273.5C1423.7,431.5,1365.2,413.6,1365.2,413.6z"/>
		<linearGradient id="SVGID_11_" gradientUnits="userSpaceOnUse" x1="920.7821" y1="1137.1134" x2="1052.2324" y2="2014.1233">
			<stop  offset="0" style="stop-color:#FFE3CE"/>
			<stop  offset="1" style="stop-color:#FCC8A4"/>
		</linearGradient>
		<path class="st17" d="M664.2,1999.5h703.9c0,0-58.4-170.8-114.6-246.8c-51-69-39.7-218.4,6.6-256
			c47.2-38.2,109.8-104.1,59.9-213.3c-49.3-107.9-26.9-187.9-76.1-228.1c-21-17.1-80-22.7-80-80c0-1.4,0.1-2.8,0.1-4.2
			c9.3-2.8,18.8-4.6,28.2-8c8.8-3.1,16.5-9.2,17.6-19.1c1.3-11.5-8-17.7-18.6-16.1c-8.9,1.3-17,5.2-26.1,5.8c-8.6,0.5-17-0.9-25-3.8
			c2.2-4.6,0.8-10.2-3.1-14.2c-8.3-8.4-20.9-2.5-31-4.3c-15.8-2.9-5.5-20.7-16.5-28.2c-9.3-6.4-21.5,2.5-30.9-2.8
			c-8.7-4.9-7.7-18.7-12.8-26.4c-1.7-2.6-4.1-4.8-7-6c-6.2-2.6-14.8,0.5-20.1-4.1c-7.2-6.3-4.9-20-8.8-28.2
			c-3.3-6.8-9.8-10.9-17.4-9.5c-22.7,3.9-19.2,27.2-17.9,47.3c-8.1,10.4-16.8,18-26.3,20.9c-53.7,16.7-326,62.1-326,62.1
			s55.4,178.3,68.7,228.7c14.7,55.7,21,130.9,36.2,219.6c16,93.2,62.3,233.6,28.3,339.3C721.5,1829.8,666,1893.5,664.2,1999.5z"/>
		<linearGradient id="SVGID_12_" gradientUnits="userSpaceOnUse" x1="920.7821" y1="1137.1134" x2="1052.2324" y2="2014.1233">
			<stop  offset="0" style="stop-color:#FFE3CE"/>
			<stop  offset="1" style="stop-color:#FCC8A4"/>
		</linearGradient>
		<path class="st18" d="M664.2,1999.5h703.9c0,0-58.4-170.8-114.6-246.8c-51-69-39.7-218.4,6.6-256
			c47.2-38.2,109.8-104.1,59.9-213.3c-49.3-107.9-26.9-187.9-76.1-228.1c-21-17.1-80-22.7-80-80c0-1.4,0.1-2.8,0.1-4.2
			c9.3-2.8,18.8-4.6,28.2-8c8.8-3.1,16.5-9.2,17.6-19.1c1.3-11.5-8-17.7-18.6-16.1c-8.9,1.3-17,5.2-26.1,5.8c-8.6,0.5-17-0.9-25-3.8
			c2.2-4.6,0.8-10.2-3.1-14.2c-8.3-8.4-20.9-2.5-31-4.3c-15.8-2.9-5.5-20.7-16.5-28.2c-9.3-6.4-21.5,2.5-30.9-2.8
			c-8.7-4.9-7.7-18.7-12.8-26.4c-1.7-2.6-4.1-4.8-7-6c-6.2-2.6-14.8,0.5-20.1-4.1c-7.2-6.3-4.9-20-8.8-28.2
			c-3.3-6.8-9.8-10.9-17.4-9.5c-22.7,3.9-19.2,27.2-17.9,47.3c-8.1,10.4-16.8,18-26.3,20.9c-53.7,16.7-326,62.1-326,62.1
			s55.4,178.3,68.7,228.7c14.7,55.7,21,130.9,36.2,219.6c16,93.2,62.3,233.6,28.3,339.3C721.5,1829.8,666,1893.5,664.2,1999.5z"/>
		<linearGradient id="SVGID_13_" gradientUnits="userSpaceOnUse" x1="704.1967" y1="1120.7643" x2="525.8198" y2="1391.9467">
			<stop  offset="0" style="stop-color:#FFE3CE"/>
			<stop  offset="1" style="stop-color:#FCC8A4"/>
		</linearGradient>
		<path class="st19" d="M721.9,1309.8c0-2.3,0.1-4.7,0.2-7c35.5-101.6,85.4-241.4,85.4-241.4L622.4,936.6c0,0-2.8,0-7.5,1.3
			c-0.4,0-0.9,0-1.3,0.1c-50.7,8.5-70.9,64.5-94,103.3c-13.9,23.4-28.9,46.2-45,68.2c-7.9,10.9-16.1,21.6-24.6,32.1
			c-7.1,8.9-14.8,17.7-19.9,28c-4.8,9.9-6.6,20.3-4.9,31.2c2,12.7,9,24.7,9.5,37.7c0.8,21.9-18.5,39-17.2,61.6
			c0.5,8.7,3.4,17.3,9.9,23.3c3.5,3.2,7.8,5.2,12.3,6.5c5.7,1.7,13.5,1.1,18.1,5.4c5.2,4.9,4.9,14.2,5.4,20.8
			c0.6,9.1,1.2,18.7,5.7,27c10.1,18.8,33.2,19,51.5,15.1c11.1-2.4,24-7.2,35.4-3.1c10.8,3.9,16.1,15.3,19.8,25.3
			c6.8,18.2,12.1,40,30.6,50c8,4.3,16.9,4.7,25.7,3c11.2-2.2,23.8-10.3,34.6-3.1c8.7,5.8,14.5,13.8,26,13.7
			c10.3-0.1,19.8-6.7,25.2-15.1c5.7-8.9,7-19.7,7.5-30.1c0.7-14.9,0.2-30-0.4-44.9C723.7,1365.8,721.4,1337.9,721.9,1309.8z"/>
		<g>
			<path class="st5" d="M1280.8,1198.1c1.6-0.9,2.4-3.3,1.3-4.9c-1.8-2.7-3.6-5.4-5.4-8.1c-1.1-1.6-3.2-2.3-4.9-1.3
				c-1.6,0.9-2.4,3.3-1.3,4.9c1.8,2.7,3.6,5.4,5.4,8.1C1276.9,1198.4,1279,1199.1,1280.8,1198.1z"/>
			<path class="st5" d="M1110.4,1608c3,1.2,6,2.3,9,3.5c1.8,0.7,3.9-0.8,4.4-2.5c0.6-2-0.7-3.7-2.5-4.4c-3-1.2-6-2.3-9-3.5
				c-1.8-0.7-3.9,0.8-4.4,2.5C1107.4,1605.6,1108.6,1607.3,1110.4,1608z"/>
			<linearGradient id="SVGID_14_" gradientUnits="userSpaceOnUse" x1="1274.3912" y1="1123.7841" x2="1271.7979" y2="1143.7118">
				<stop  offset="0" style="stop-color:#FF7C9E"/>
				<stop  offset="1" style="stop-color:#EF5E8B"/>
			</linearGradient>
			<path class="st20" d="M1264.9,1133.8c-1.7,2.8-4,7.1-1.1,9.8c2.5,2.3,6.8,2,9.9,1.8c2.7-0.2,5.3-0.7,7.9-1.4l-4.4-22.6
				C1272.3,1124.5,1268.1,1128.5,1264.9,1133.8z"/>
			<path class="st5" d="M1262.8,1227.1c1.8,0.7,3.9-0.8,4.4-2.5c0.6-2-0.7-3.7-2.5-4.4c-3-1.2-6-2.4-9-3.6c-1.8-0.7-3.9,0.8-4.4,2.5
				c-0.6,2,0.7,3.7,2.5,4.4C1256.8,1224.7,1259.8,1225.9,1262.8,1227.1z"/>
			<linearGradient id="SVGID_15_" gradientUnits="userSpaceOnUse" x1="1204.9902" y1="1083.2853" x2="1195.1328" y2="1159.0313">
				<stop  offset="0" style="stop-color:#FF7C9E"/>
				<stop  offset="1" style="stop-color:#EF5E8B"/>
			</linearGradient>
			<path class="st21" d="M1125.1,1157.4c15-12.8,31.9-22.9,49.9-30.3c4.3,9.5,13.1,15.6,23.5,17.4c5.5,1,11.2,0.7,16.7-0.3
				c5.2-0.9,14-1.9,18.2-5.5c7.5-6.4-0.1-13-6.8-15c-10.1-3-20.9-3.9-31.6-3.6c26.2-7.4,54-9.3,81.1-4.9l-1.1-5.6
				c-25.6-3.8-51.6-2.3-76.4,4c2.5-2.3,4.9-4.8,7-7.6c4.7-6.3,13-19.9,10.1-28.2c-4.1-11.7-18.3,5.3-21.4,9
				c-8.4,9.9-14.3,21.4-17.9,33.7c-0.5,0.1-0.9,0.3-1.4,0.5c-0.6,0.2-1,0.5-1.3,0.9c-18.8,7.6-36.5,18.2-52.2,31.6
				C1118.7,1155.9,1122.5,1159.7,1125.1,1157.4z"/>
			<path class="st5" d="M1119.6,1572.5c-4.1-2-7.8,4.2-3.6,6.2c6.8,3.2,14,4.9,21.5,5c4.6,0,4.6-7.1,0-7.2
				C1131.2,1576.5,1125.2,1575.2,1119.6,1572.5z"/>
			<linearGradient id="SVGID_16_" gradientUnits="userSpaceOnUse" x1="1202.4788" y1="1396.6362" x2="1185.3606" y2="1528.1755">
				<stop  offset="0" style="stop-color:#FF7C9E"/>
				<stop  offset="1" style="stop-color:#EF5E8B"/>
			</linearGradient>
			<path class="st22" d="M1218.1,1394.7c-14-1.3-27.8,1-40.7,6.3c-0.1-0.1-0.3-0.2-0.4-0.3c-1-0.6-1.9-0.5-2.6-0.1
				c-11.6-12.3-25.4-22.8-40.8-30.6c-3.1-1.6-5.8,3.1-2.7,4.6c14.4,7.3,27.4,17,38.5,28.5c-10.6,5.8-19.4,14.1-25.6,24.4
				c-3.4,5.7-6,11.9-7.6,18.3c-1,4.1-3.2,11.3-0.7,15.1c5.4,7.9,16.7-4.7,19.8-9c8.8-12.5,14.3-28.3,19.6-42.8
				c14.3,16.6,24.9,36.3,30.7,57.6c-3.1-3.6-6.7-6.7-10.6-9.4c-2.9-1.9-6-3.6-9.2-5c-2.4-1-6.3-3.1-8.3-0.4c-1.7,2.3-1.3,6.3-1.2,9
				c0.1,3.4,0.6,6.7,1.5,10c1.7,6.5,4.8,12.7,8.9,18.1c2.9,3.7,6.4,7.1,10.3,9.8c-7.6,3.3-14.4,8.6-19,15.5c-1.9,2.7-5.1,7-2.2,10.1
				c2.6,2.7,7.7,3.3,11.2,3.6c8.7,0.7,17.7-1.9,24.4-7.5c2.4-2,4.5-4.3,6.2-6.9c-0.7,12,2.2,23.9,11.2,32.8c0.7,0.7,1.6,1.6,2.6,2.3
				c1.2-4.6,2.6-9.3,3.9-13.8c1.3-4.3,3.4-8.7,5.8-12.8c-0.4-1.5-0.9-2.9-1.4-4.3c1.2,0.3,2.4,0.6,3.6,0.8
				c9.7-15.1,23.2-26.9,23.3-27c-4.7-1.2-9.6-2-14.6-2.1c-2.1,0-4.1,0.1-6.1,0.2c3-5,4.1-11.1,4.2-16.9c0.1-9.3-2.4-18.3-2.9-27.6
				c0-0.8-1.1-1.3-1.7-0.8c-12.7,10.8-27.1,24-28.9,41.2c-0.5-1.2-0.9-2.4-1.4-3.5c-0.4-1-0.8-2-1.3-3c-4.2-25-14.8-48.4-30.2-68.1
				c9.6,5.8,20,10.7,31.3,10.4c9.3-0.2,24.7-5.2,27.1-15.9C1244,1396.1,1224,1395.3,1218.1,1394.7z"/>
			<path class="st5" d="M1243.1,1259.1c3.9,1.2,7.7,2.5,11.6,3.7c4.4,1.4,6.3-5.5,1.9-6.9c-3.9-1.2-7.7-2.5-11.6-3.7
				C1240.7,1250.8,1238.8,1257.7,1243.1,1259.1z"/>
			<path class="st5" d="M811.9,1125.1c1.9-3.6,2.8-7.6,2.3-11.7c-0.2-1.9-1.5-3.6-3.6-3.6c-1.8,0-3.8,1.6-3.6,3.6
				c0.3,2.8,0,5.5-1.3,8C803.6,1125.6,809.7,1129.2,811.9,1125.1z"/>
			<path class="st5" d="M843.7,1137.2c1.9-1.1,2-3.1,1.3-4.9c-1.8-4.2-3.6-8.4-5.4-12.5c-0.8-1.8-3.4-2.2-4.9-1.3
				c-1.9,1.1-2,3.1-1.3,4.9c1.8,4.2,3.6,8.4,5.4,12.5C839.6,1137.7,842.2,1138.1,843.7,1137.2z"/>
			<path class="st5" d="M882.5,1101c-1.2,1.2-1.5,3.9,0,5.1c2.7,2.1,5.4,4.2,8,6.3c1.5,1.2,3.6,1.5,5.1,0c1.2-1.2,1.5-3.9,0-5.1
				c-2.7-2.1-5.4-4.2-8-6.3C886,1099.8,884,1099.5,882.5,1101z"/>
			<path class="st5" d="M877,1128.9c-2.9-4.8-5.9-9.6-8.8-14.4c-2.4-3.9-8.6-0.3-6.2,3.6c2.9,4.8,5.9,9.6,8.8,14.4
				C873.2,1136.4,879.4,1132.8,877,1128.9z"/>
			<path class="st5" d="M799.9,1089c-5.5,3.8-9.5,9-11.6,15.4c-1.4,4.4,5.5,6.3,6.9,1.9c1.5-4.5,4.4-8.4,8.3-11.1
				C807.3,1092.6,803.7,1086.4,799.9,1089z"/>
			<path class="st5" d="M815.1,1068.1c-8.1,0.9-16.1,1.7-24.2,2.6c-4.5,0.5-4.6,7.7,0,7.2c8.1-0.9,16.1-1.7,24.2-2.6
				C819.6,1074.7,819.7,1067.6,815.1,1068.1z"/>
			<linearGradient id="SVGID_17_" gradientUnits="userSpaceOnUse" x1="1041.6025" y1="909.6373" x2="1020.2753" y2="1073.52">
				<stop  offset="0" style="stop-color:#FF7C9E"/>
				<stop  offset="1" style="stop-color:#EF5E8B"/>
			</linearGradient>
			<path class="st23" d="M1015.1,928.5c-0.2,0.1-0.3,0.2-0.5,0.4c-13.8,14.6-23.7,31.8-29.5,51.1c-0.7,2.4,1.9,4,3.9,3
				c16.9-7.7,28.4-23.7,30.8-41.7c6.7,21.7,7.2,45.2,0.7,68c-4.7-5.2-10.5-9.4-17.1-11.8c-3.1-1.2-8-3.3-10.3,0.3
				c-2,3.1-1.4,8.3-0.8,11.7c1.4,8.6,6,16.7,13.1,21.9c2.5,1.9,5.3,3.3,8.1,4.4c-11.8,2.2-22.7,7.8-29.2,18.6
				c-1.7,2.8-4,7.1-1.1,9.8c2.5,2.3,6.8,2,9.9,1.8c7.7-0.6,15.2-3.4,21.6-7.8c-0.4,11.3,4.6,22.9,13.5,29.9
				c4.2,3.3,9.9,6.9,15.5,6.6c0.5,0,0.9-0.4,1-0.9c2-10,2.6-20.3,0.3-30.4c-0.5-2-1-4-1.7-5.9c5.5,1.8,11.8,1.4,17.4,0.1
				c9-2.1,17.2-6.7,26.1-9.3c0.7-0.2,1-1.4,0.3-1.8c-13.5-9.8-29.7-20.7-46.9-18.3c1-0.7,2.1-1.5,3.1-2.2c2.8-2,5.5-4.3,7.9-6.8
				c5-5.3,9-11.7,11.5-18.6c1.2-3.3,2.1-6.7,2.7-10.1c0.4-2.6,1.5-6.9-1.6-8.2c-2.6-1.1-6.4,0.3-9,1c-3.2,0.9-6.4,2.2-9.3,3.8
				c-6,3.2-11.2,7.6-15.4,12.9c-0.9,1.2-1.8,2.4-2.6,3.7c5.7-25.8,3.1-52.4-7-76c14.9,14.2,34.3,22.3,55.1,23.2c2,0.1,3.4-2.4,2.3-4
				c-14.6-21.8-39.9-28.2-64.3-32.8c-7.2-12.4-16.5-23.7-28-33.2c-2.6-2.2-6.5,1.6-3.8,3.8C996.7,896.8,1007.8,911.9,1015.1,928.5z"
				/>
			<linearGradient id="SVGID_18_" gradientUnits="userSpaceOnUse" x1="1029.1034" y1="1441.4078" x2="1010.4489" y2="1584.7529">
				<stop  offset="0" style="stop-color:#FF7C9E"/>
				<stop  offset="1" style="stop-color:#EF5E8B"/>
			</linearGradient>
			<path class="st24" d="M1084.4,1607.4c2.2-21.8-2-42.9-11.1-61.4c5.1,1.1,11-2.4,13.5-8c6.2-13.7,3-32.8-0.7-46.8
				c-0.6-2.4-3.6-2.4-4.9-0.6c-8.9,12.2-14.4,26-16.6,40.7c-10.1-14.5-23.7-26.7-39.9-35.3c8.6,0.5,17.5-2,24.3-7.3
				c4.2-3.3,9.1-8,10-13.6c0.1-0.5-0.2-1-0.6-1.1c-9.3-4.3-19.1-7.3-29.4-7.5c-2.1,0-4.1,0.1-6.1,0.2c3-5,4.1-11.1,4.2-16.9
				c0.1-9.3-2.4-18.3-2.9-27.6c0-0.8-1.1-1.3-1.7-0.8c-12.7,10.8-27.1,24-28.9,41.2c-0.5-1.2-0.9-2.4-1.4-3.5
				c-1.3-3.2-2.9-6.4-4.8-9.3c-4-6.2-9.2-11.5-15.3-15.6c-2.9-1.9-6-3.6-9.2-5c-2.4-1-6.3-3.1-8.3-0.4c-1.7,2.3-1.3,6.3-1.2,9
				c0.1,3.4,0.6,6.7,1.5,10c1.7,6.5,4.8,12.7,8.9,18.1c2.9,3.7,6.4,7.1,10.3,9.8c-7.6,3.3-14.4,8.6-19,15.5c-1.9,2.7-5.1,7-2.2,10.1
				c2.6,2.7,7.7,3.3,11.2,3.6c8.7,0.7,17.7-1.9,24.4-7.5c2.4-2,4.5-4.3,6.2-6.9c-0.7,12,2.2,23.9,11.2,32.8c2.3,2.3,5.9,5.6,9.3,3.4
				c2.8-1.8,3.5-6.2,4.1-9.2c1.1-6.3,0.6-12.8-1.2-19c18.3,8.7,33.3,22,43.9,38.2c-18.5-6.7-38.9-4.5-55.6,6.6
				c-1.7,1.2-1.7,3.5,0,4.6c11,7.5,23.8,8.7,36.7,6.8c6-0.9,19.2-1.9,24.9-7.4c9.1,18.1,13.2,38.8,11.1,60
				C1078.7,1610.8,1084,1610.8,1084.4,1607.4z"/>
			<linearGradient id="SVGID_19_" gradientUnits="userSpaceOnUse" x1="1209.3922" y1="1719.9546" x2="1190.1912" y2="1867.4993">
				<stop  offset="0" style="stop-color:#FF7C9E"/>
				<stop  offset="1" style="stop-color:#EF5E8B"/>
			</linearGradient>
			<path class="st25" d="M1218.8,1793.8c2,5,5,11,10.1,13.5c0.4,0.2,1,0.1,1.3-0.3c6.8-7.7,12.6-16.2,15.7-26c0.6-2,1.1-3.9,1.5-5.9
				c3.9,4.3,9.4,7.2,14.9,8.9c4.3,1.4,8.8,2.1,13.2,2.8c-7.3-12.5-14.6-24.1-22-34c-10.3-13.9-18.1-31.1-23.5-50
				c-1,1.7-1.7,3.5-2.3,5c-3.2,8.1-3.3,17.5,0.2,25.5c1.2,2.9,2.8,5.5,4.8,7.9c-11.3-4.1-23.5-4.8-34.6,1.2c-2.8,1.5-7.1,4-5.9,7.9
				c0.9,3.3,4.9,5.2,7.7,6.5c3.8,1.9,8,3.2,12.2,3.8c-12.2,4.3-24.3,9.1-36,14.5c-9.7,4.5-19.6,9.4-28.2,15.9
				c7.4-21.2,6.2-44.5-3.5-65.3c-1.1-2.3-4.2-1.3-4.9,0.6c-8.7,24.3-10.3,50.1-4.8,75.2c-2.7-1.1-4.9,3.1-2.2,4.9
				c0.1,0.1,0.2,0.1,0.3,0.2c-13.1,18.7-16,43-16,65.5c0,3.2,4.2,3.4,5.3,0.7c0.6-1.5,1.2-3,1.8-4.5c0.6-1.6-0.3-2.7-1.6-3.1
				c0.6-19.5,3.9-39.8,15.1-55.7c22.6,13.8,48.2,21.1,74.8,21.4c2,0,3.5-2.3,2.3-4c-14.7-22.1-42.1-33.1-67.7-27.8
				c10.2-9,22.8-15,35.1-20.6c12.8-5.8,26-10.8,39.3-15.2C1216,1772.5,1214.9,1784,1218.8,1793.8z"/>
			<path class="st5" d="M1014.5,1599.8c-1.7,3.8-3.4,7.6-5,11.4c-0.8,1.8-0.5,3.8,1.3,4.9c1.5,0.9,4.1,0.5,4.9-1.3
				c1.7-3.8,3.4-7.6,5-11.4c0.8-1.8,0.5-3.8-1.3-4.9C1017.9,1597.7,1015.3,1598.1,1014.5,1599.8z"/>
			<path class="st5" d="M1038.8,1626.7c1.3-4.1,1.3-8.5,0-12.7c-1.4-4.4-8.3-2.5-6.9,1.9c1,3,1,5.8,0,8.8
				C1030.5,1629.2,1037.4,1631.1,1038.8,1626.7z"/>
			<linearGradient id="SVGID_20_" gradientUnits="userSpaceOnUse" x1="1125.9558" y1="1222.4357" x2="1112.9878" y2="1322.0839">
				<stop  offset="0" style="stop-color:#FF7C9E"/>
				<stop  offset="1" style="stop-color:#EF5E8B"/>
			</linearGradient>
			<path class="st26" d="M1143.2,1275.6c-7.8,3.1-14.6,8.1-19.2,15.8c-1.7,2.8-4,7.1-1.1,9.8c2.5,2.3,6.8,2,9.9,1.8
				c7.7-0.6,15.2-3.4,21.6-7.8c-0.4,11.3,4.6,22.9,13.5,29.9c4.2,3.3,9.9,6.9,15.5,6.6c0.5,0,0.9-0.4,1-0.9c2-10,2.6-20.3,0.3-30.4
				c-0.5-2-1-4-1.7-5.9c5.5,1.8,11.8,1.4,17.4,0.1c9-2.1,17.2-6.7,26.1-9.3c0.7-0.2,1-1.4,0.3-1.8c-13.5-9.8-29.7-20.7-46.9-18.3
				c1-0.7,2.1-1.5,3.1-2.2c2.8-2,5.5-4.3,7.9-6.8c5-5.3,9-11.7,11.5-18.6c1.2-3.3,2.1-6.7,2.7-10.1c0.4-2.6,1.5-6.9-1.6-8.2
				c-2.6-1.1-6.4,0.3-9,1c-3.2,0.9-6.4,2.2-9.3,3.8c-6,3.2-11.2,7.6-15.4,12.9c-3,3.7-5.4,7.9-7.1,12.3c-5-6.6-11.8-11.9-19.6-14.8
				c-3.1-1.2-8-3.3-10.3,0.3c-2,3.1-1.4,8.3-0.8,11.7c1.4,8.6,6,16.7,13.1,21.9c1,0.8,2.1,1.4,3.2,2.1c-29.4-1.7-58.5,2.8-85.7,12.8
				c8-14.4,7.2-32-3.1-46.3c-1.4-1.9-4.1-1.6-4.9,0.6c-6.1,16.7-8,33.8-6,51.4c-15.3,6.9-29.8,15.6-43.2,26
				c-2.7,2.1,1.1,5.9,3.8,3.8c12.8-10,26.7-18.3,41.3-24.9c0.1,0,0.2,0.1,0.4,0.1c3.3,7.8,8.8,14.4,16.1,19c7,4.4,19.5,9,27.5,5
				c7.7-3.9,2-10.4-2.8-13.7c-9.8-6.7-20.7-11.3-32.1-14.2C1086,1279.6,1114.5,1274.6,1143.2,1275.6z"/>
			<path class="st5" d="M1046.1,1341.9c-2.4-2.4-4.7-4.8-7.1-7.2c-3.2-3.3-8.3,1.8-5.1,5.1c2.4,2.4,4.7,4.8,7.1,7.2
				C1044.2,1350.3,1049.3,1345.2,1046.1,1341.9z"/>
			<path class="st5" d="M1098,1640.6c4,2.3,7.6-3.9,3.6-6.2c-4.9-2.8-9-6.6-12-11.4c-2.4-3.9-8.6-0.3-6.2,3.6
				C1087,1632.5,1092,1637.2,1098,1640.6z"/>
			<path class="st5" d="M1028,1355.5c-3.3-3.9-6.6-7.8-9.9-11.6c-3-3.5-8,1.6-5.1,5.1c3.3,3.9,6.6,7.8,9.9,11.6
				C1026,1364,1031,1359,1028,1355.5z"/>
			<path class="st5" d="M956.6,1317.5c3.6,0.3,7.2,0.5,10.8,0.8c4.6,0.3,4.6-6.8,0-7.2c-3.6-0.3-7.2-0.5-10.8-0.8
				C952,1310,952,1317.2,956.6,1317.5z"/>
			<path class="st5" d="M973.7,1347.1c1.2,1.2,3.9,1.5,5.1,0c2.1-2.7,4.2-5.4,6.3-8.1c1.2-1.5,1.5-3.6,0-5.1c-1.2-1.2-3.9-1.5-5.1,0
				c-2.1,2.7-4.2,5.4-6.3,8.1C972.5,1343.5,972.2,1345.6,973.7,1347.1z"/>
			<path class="st5" d="M997.9,1359.8c-0.3-4.5-0.6-9-1-13.4c-0.3-4.6-7.5-4.6-7.2,0c0.3,4.5,0.6,9,1,13.4
				C991,1364.3,998.2,1364.4,997.9,1359.8z"/>
			<path class="st5" d="M976.3,1289c-2.7-0.6-5.4-1.2-8.1-1.8c-1.9-0.4-3.9,0.6-4.4,2.5c-0.5,1.8,0.6,4,2.5,4.4
				c2.7,0.6,5.4,1.2,8.1,1.8c1.9,0.4,3.9-0.6,4.4-2.5C979.3,1291.6,978.2,1289.4,976.3,1289z"/>
			<linearGradient id="SVGID_21_" gradientUnits="userSpaceOnUse" x1="904.5972" y1="1139.4418" x2="883.5266" y2="1301.3531">
				<stop  offset="0" style="stop-color:#FF7C9E"/>
				<stop  offset="1" style="stop-color:#EF5E8B"/>
			</linearGradient>
			<path class="st27" d="M906,1177.3c1.9,4.7,8.8,8.5,12.8,11.4c7.2,5.3,15,10.3,23.3,13.8c3.5,1.5,7.4,2.4,11.1,2.4
				c-0.6,1.2-1.2,2.3-1.7,3.5c-19.6,24-49.2,39.6-82.4,40.3c0,0,0,0,0.1,0c2.8-2,5.5-4.3,7.9-6.8c5-5.3,9-11.7,11.5-18.6
				c1.2-3.3,2.1-6.7,2.7-10.1c0.4-2.6,1.5-6.9-1.6-8.2c-2.6-1.1-6.4,0.3-9,1c-3.2,0.9-6.4,2.2-9.3,3.8c-6,3.2-11.2,7.6-15.4,12.9
				c-3,3.7-5.4,7.9-7.1,12.3c-5-6.6-11.8-11.9-19.6-14.8c-3.1-1.2-8-3.3-10.3,0.3c-2,3.1-1.4,8.3-0.8,11.7c1.4,8.6,6,16.7,13.1,21.9
				c2.5,1.9,5.3,3.3,8.1,4.4c-11.8,2.2-22.7,7.8-29.2,18.6c-1.7,2.8-4,7.1-1.1,9.8c2.5,2.3,6.8,2,9.9,1.8c7.7-0.6,15.2-3.4,21.6-7.8
				c-0.4,11.3,4.6,22.9,13.5,29.9c4.2,3.3,9.9,6.9,15.5,6.6c0.5,0,0.9-0.4,1-0.9c2-10,2.6-20.3,0.3-30.4c-0.5-2-1-4-1.7-5.9
				c5.5,1.8,11.8,1.4,17.4,0.1c9-2.1,17.2-6.7,26.1-9.3c0.7-0.2,1-1.4,0.3-1.8c-8.6-6.2-18.4-12.9-28.8-16.3
				c23.7-3.6,45-14.7,61.7-30.6c-4.1,12.6-6,25.9-5.6,39.4c0.1,1.8,2.3,3.6,4,2.3c23.9-18.1,34.8-49,27.3-78
				c7.7-17,11.3-36.1,9.6-56.1c-0.3-3.4-5.7-3.5-5.4,0c1.6,19.1-1.8,37.3-9,53.5c-0.6,0.5-0.9,1.1-0.9,2c-0.1,0.2-0.2,0.4-0.3,0.6
				c-10.6-8.8-23.1-14.7-36.9-16.4C924.1,1168.9,901.5,1166.3,906,1177.3z"/>
			<linearGradient id="SVGID_22_" gradientUnits="userSpaceOnUse" x1="887.7106" y1="1861.6542" x2="871.144" y2="1988.9551">
				<stop  offset="0" style="stop-color:#FF7C9E"/>
				<stop  offset="1" style="stop-color:#EF5E8B"/>
			</linearGradient>
			<path class="st28" d="M892.9,1866.3c-7.7-0.7-14,0.7-18.9,4.2c-11.4-15.1-27.3-27.1-46.5-33.8c-3.3-1.1-4.7,4-1.4,5.2
				c17.5,6.1,31.9,16.8,42.5,30.2c0,0,0,0,0,0c-25.1,4.1-44.3,25.2-46.7,50.4c-0.2,1.9,1.9,2.9,3.4,2.6c11.8-2,22.6-7.6,30.8-16.2
				c4.4-4.6,7.9-9.9,10.4-15.8c2.1-4.8,3.3-10.5,6.5-14.8c15.9,23.8,20.6,54.6,10.5,83.6c-1.3-7.2-4.3-14.2-8.9-19.9
				c-2.1-2.6-5.3-6.9-9-5c-3.3,1.7-5.4,6.4-6.7,9.7c-3.2,8.1-3.3,17.5,0.2,25.5c1.2,2.9,2.8,5.5,4.8,7.9
				c-11.3-4.1-23.5-4.8-34.6,1.2c-2.8,1.5-7.1,4-5.9,7.9c0.9,3.3,4.9,5.2,7.7,6.5c3.9,1.9,8.1,3.2,12.5,3.8h63.4
				c-4.4-5.3-9.5-9.8-16-12.5c1.3-0.1,2.5-0.2,3.8-0.3c3.5-0.3,6.9-0.9,10.3-1.9c7-2,13.7-5.5,19.4-10.1c2.7-2.2,5.2-4.7,7.4-7.4
				c1.6-2,4.8-5.2,2.8-7.9c-1.7-2.3-5.6-3-8.2-3.7c-3.3-0.9-6.6-1.3-10-1.5c-6.7-0.3-13.6,0.9-19.9,3.3c-2.4,0.9-4.7,2-6.9,3.3
				c8.1-24.9,5.7-50.8-4.8-72.9c17.6,14.6,37.2,26.3,58.4,35.1c1.5,0.6,3.6-1,3.4-2.6C943.4,1893.1,921.1,1868.8,892.9,1866.3z"/>
			<linearGradient id="SVGID_23_" gradientUnits="userSpaceOnUse" x1="503.7374" y1="1133.7531" x2="493.5951" y2="1211.6887">
				<stop  offset="0" style="stop-color:#FF7C9E"/>
				<stop  offset="1" style="stop-color:#EF5E8B"/>
			</linearGradient>
			<path class="st29" d="M557,1217.2c-13.3-4.4-26-10.1-37.9-17.1c12-18.5,4.1-41.7,6.3-62.6c0.3-2.8-3.7-3.5-5-1.4
				c-10.1,17.1-14.9,36.1-14.1,55.8c-17.3-12-32.6-26.8-45.4-43.8c5.2,1.3,10.8,0.9,15.9-0.3c9-2.1,17.2-6.7,26.1-9.3
				c0.7-0.2,1-1.4,0.3-1.8c-10.5-7.6-22.5-15.8-35.4-18c-5.8,7.8-11.7,15.4-17.8,23c-5.7,7.1-11.8,14.2-16.6,22
				c2.3,5.7,5.9,10.8,10.8,14.6c4.2,3.3,9.9,6.9,15.5,6.6c0.5,0,0.9-0.4,1-0.9c1.7-8.5,2.4-17.3,1.1-25.9
				c12.1,14.8,26.2,27.8,41.8,38.6c-14.1-0.8-27.6,4.8-37,15.9c-1.5,1.7-0.6,4.5,1.9,4.6c14.6,0.2,40.3,3.5,47.1-12.8
				c12.5,7.4,25.8,13.4,39.7,18C558.8,1223.4,560.2,1218.2,557,1217.2z"/>
			<linearGradient id="SVGID_24_" gradientUnits="userSpaceOnUse" x1="787.6556" y1="1688.7809" x2="765.453" y2="1859.3901">
				<stop  offset="0" style="stop-color:#FF7C9E"/>
				<stop  offset="1" style="stop-color:#EF5E8B"/>
			</linearGradient>
			<path class="st30" d="M837.8,1797.9c3.1-3.7,0.7-11.9,0.1-16.2c-1.3-9.1-3.6-18-7-26.5c-2.9-7.4-7.6-21.5-16-25.2
				c8.4-17.2,12.6-36.6,11.4-56.9c-0.2-3.4-5.6-3.5-5.4,0c1.2,20.1-3.1,39.3-11.6,56.1c-0.4,0-0.8,0.1-1.2,0.2
				c-0.5,0.1-0.9,0.3-1.1,0.6c-15.7-1.5-30.9,2.5-43.8,11.7c-2.3,1.6-1.3,4.7,1.4,5c13.8,1.6,27.3-1,39.1-7.6
				c-15.2,23.4-39.4,40.8-68.5,47c-0.3-1.5-0.7-3.1-1.2-4.6c-11.1,25.9-22.6,49.8-33.1,73.5c0.3,1,0.6,1.9,1,2.9c2,5,5,11,10.1,13.5
				c0.4,0.2,1,0.1,1.3-0.3c6.8-7.7,12.6-16.2,15.7-26c0.6-2,1.1-3.9,1.5-5.9c3.9,4.3,9.4,7.2,14.9,8.9c8.8,2.8,18.3,3,27.2,5.2
				c0.8,0.2,1.5-0.7,1.2-1.4c-6.7-15.3-15.1-32.9-31.1-39.6c1.3-0.1,2.5-0.2,3.8-0.3c3.5-0.3,6.9-0.9,10.3-1.9
				c7-2,13.7-5.5,19.4-10.1c2.7-2.2,5.2-4.7,7.4-7.4c1.6-2,4.8-5.2,2.8-7.9c-1.7-2.3-5.6-3-8.2-3.7c-3.3-0.9-6.6-1.3-10-1.5
				c-0.1,0-0.1,0-0.2,0c15.5-8.5,28.6-20.5,38.4-34.8c0.7,12,3.8,23.7,9.6,34.4C818.3,1783.7,830.8,1806.3,837.8,1797.9z"/>
			<path class="st5" d="M541.4,1250.2c0.2,3.2,0.4,6.4,0.6,9.6c0.3,4.6,7.4,4.6,7.2,0c-0.2-3.2-0.4-6.4-0.6-9.6
				C548.3,1245.6,541.2,1245.6,541.4,1250.2z"/>
			<path class="st5" d="M999,1893.5c-1-1.6-3.2-2.4-4.9-1.3c-1.6,1-2.4,3.2-1.3,4.9c1.2,1.8,2.4,3.6,3.6,5.4c1,1.6,3.2,2.4,4.9,1.3
				c1.6-1,2.4-3.2,1.3-4.9C1001.4,1897.1,1000.2,1895.3,999,1893.5z"/>
			<path class="st5" d="M517.5,1244c0.6,3.1,0.6,6.3,0,9.4c-0.9,4.5,6,6.4,6.9,1.9c0.9-4.4,0.9-8.8,0-13.2
				C523.5,1237.6,516.6,1239.5,517.5,1244z"/>
			<linearGradient id="SVGID_25_" gradientUnits="userSpaceOnUse" x1="618.1803" y1="1268.7861" x2="598.3859" y2="1420.8907">
				<stop  offset="0" style="stop-color:#FF7C9E"/>
				<stop  offset="1" style="stop-color:#EF5E8B"/>
			</linearGradient>
			<path class="st31" d="M671.1,1314.8c2.8-5.4,5.2-11,7.2-16.8c4.6-13.1,9.4-29.7-0.9-41.3c-2.3-2.6-6.1,1.2-3.8,3.8
				c10.7,12.1,0.8,34.7-5.1,47.2c-1.1,2.4-2.4,4.8-3.6,7.1c-16.6-14.2-46.5,2.9-59.8,14.3c-2,1.7-0.2,4.3,1.9,4.6
				c16.5,2,34.4,2.5,49-4.8c-3.6,5-7.6,9.8-11.9,14.3c-16.9,17.4-38.6,29.3-62,34.9c1.4-1.2,2.7-2.4,4-3.7c5-5.3,9-11.7,11.5-18.6
				c1.2-3.3,2.1-6.7,2.7-10.1c0.4-2.6,1.5-6.9-1.6-8.2c-2.6-1.1-6.4,0.3-9,1c-3.2,0.9-6.4,2.2-9.3,3.8c-6,3.2-11.2,7.6-15.4,12.9
				c-3,3.7-5.4,7.9-7.1,12.3c-5-6.6-11.8-11.9-19.6-14.8c-3.1-1.2-8-3.3-10.3,0.3c-2,3.1-1.4,8.3-0.8,11.7c1.4,8.6,6,16.7,13.1,21.9
				c2.5,1.9,5.3,3.3,8.1,4.4c-3.8,0.7-7.5,1.8-11,3.3c6.3-1.1,12.7-1.4,18.6,0.7c10.8,3.9,16.1,15.3,19.8,25.3
				c1.9,4.9,3.6,10.1,5.5,15.3c0.3-5.7-0.1-11.4-1.3-17c-0.5-2-1-4-1.7-5.9c5.5,1.8,11.8,1.4,17.4,0.1c9-2.1,17.2-6.7,26.1-9.3
				c0.7-0.2,1-1.4,0.3-1.8c-11.3-8.2-24.5-17.1-38.6-18.4c27.1-6.5,51.9-21.1,70.2-42.6c2.8-3.3,5.5-6.8,8-10.4
				c-3.5,23.6-2.7,47.4,2.3,70.9c0.4,2,3.2,2.6,4.5,1.2c22.5-24.4,23.3-60.2,2.5-85.6C671.3,1316.2,671.3,1315.4,671.1,1314.8z"/>
			<path class="st5" d="M971.8,1881.9c0.3,4.2,0.6,8.4,0.9,12.5c0.3,4.6,7.5,4.6,7.2,0c-0.3-4.2-0.6-8.4-0.9-12.5
				C978.6,1877.3,971.4,1877.3,971.8,1881.9z"/>
			<linearGradient id="SVGID_26_" gradientUnits="userSpaceOnUse" x1="1187.7379" y1="1891.2736" x2="1175.5906" y2="1984.6165">
				<stop  offset="0" style="stop-color:#FF7C9E"/>
				<stop  offset="1" style="stop-color:#EF5E8B"/>
			</linearGradient>
			<path class="st32" d="M1286.7,1947.4c-3.3-0.9-6.6-1.3-10-1.5c-6.7-0.3-13.6,0.9-19.9,3.3c-4.4,1.7-8.6,4.1-12.4,7
				c-0.9-8.2-4.1-16.2-9.4-22.7c-2.1-2.6-5.3-6.9-9-5c-3.3,1.7-5.4,6.4-6.7,9.7c-2.7,7-3.2,14.8-1.1,22
				c-18.4-15.5-40.7-30.2-64.3-39c29-0.5,56.9-12,77.9-32.4c1.8-1.7,0.3-4.4-1.9-4.6c-34.3-2.4-67.9,9.1-93.7,31.7
				c-22.8-5.2-46.2-3.9-67.8,8.3c-3,1.7-0.3,6.3,2.7,4.6c20.2-11.4,42-12.6,63.4-7.8c0.1,0.6,0.5,1.3,1.2,1.7
				c0.6,0.4,1.1,0.8,1.7,1.2c-0.8,23.1,10.8,45.1,30.4,57.6c1.7,1.1,4.1-0.3,4-2.3c-0.7-21.4-10-41.1-25.7-55.1
				c28.7,9.3,55.8,28.2,76.3,46.9c-10.7-3.5-22.3-3.8-32.8,1.9c-2.8,1.5-7.1,4-5.9,7.9c0.9,3.3,4.9,5.2,7.7,6.5
				c6.9,3.4,14.8,4.8,22.6,4.2c-1.6,2.5-2.9,5.2-3.8,8h62.9c-5.4-9-12.2-16.9-21.8-20.8c1.3-0.1,2.5-0.2,3.8-0.3
				c3.5-0.3,6.9-0.9,10.3-1.9c7-2,13.7-5.5,19.4-10.1c2.7-2.2,5.2-4.7,7.4-7.4c1.6-2,4.8-5.2,2.8-7.9
				C1293.2,1948.9,1289.3,1948.1,1286.7,1947.4z"/>
			<path class="st5" d="M1060.4,1624.9c-0.3-4.6-7.5-4.6-7.2,0c0.4,5.7,2.6,10.8,6.5,15.1c3.1,3.4,8.2-1.7,5.1-5.1
				C1062.2,1632.1,1060.7,1628.6,1060.4,1624.9z"/>
			<path class="st5" d="M1041.6,1871.2c-2.3,0-4.5-0.9-5.8-2.8c-1.1-1.6-3.1-2.3-4.9-1.3c-1.6,0.9-2.4,3.3-1.3,4.9
				c2.8,4,7.1,6.4,12,6.3C1046.2,1878.3,1046.2,1871.1,1041.6,1871.2z"/>
			<linearGradient id="SVGID_27_" gradientUnits="userSpaceOnUse" x1="996.6206" y1="1668.3806" x2="973.2393" y2="1848.0472">
				<stop  offset="0" style="stop-color:#FF7C9E"/>
				<stop  offset="1" style="stop-color:#EF5E8B"/>
			</linearGradient>
			<path class="st33" d="M1048.7,1753.2c-34.8,5.8-57.3,33.6-70.8,64.2c-0.5-0.7-1-1.5-1.5-2.2c-9-30-6.5-63,8.4-92.2
				c0.7,9.4,4,18.4,11.1,25.5c2.3,2.3,5.9,5.6,9.3,3.4c2.8-1.8,3.5-6.2,4.1-9.2c1.3-7.6,0.3-15.6-2.5-22.8c10.9,3,23.3,1,32.3-6
				c4.2-3.3,9.1-8,10-13.6c0.1-0.5-0.2-1-0.6-1.1c-9.3-4.3-19.1-7.3-29.4-7.5c-2.1,0-4.1,0.1-6.1,0.2c3-5,4.1-11.1,4.2-16.9
				c0.1-9.3-2.4-18.3-2.9-27.6c0-0.8-1.1-1.3-1.7-0.8c-12.7,10.8-27.1,24-28.9,41.2c-0.5-1.2-0.9-2.4-1.4-3.5
				c-1.3-3.2-2.9-6.4-4.8-9.3c-4-6.2-9.2-11.5-15.3-15.6c-2.9-1.9-6-3.6-9.2-5c-2.4-1-6.3-3.1-8.3-0.4c-1.7,2.3-1.3,6.3-1.2,9
				c0.1,3.4,0.6,6.7,1.5,10c1.7,6.5,4.8,12.7,8.9,18.1c2.9,3.7,6.4,7.1,10.3,9.8c-7.6,3.3-14.4,8.6-19,15.5c-1.9,2.7-5.1,7-2.2,10.1
				c2.6,2.7,7.7,3.3,11.2,3.6c8.7,0.7,17.7-1.9,24.4-7.5c0.3-0.3,0.6-0.5,0.9-0.8c-13.1,26.5-16.6,56-11,83.7
				c-6.7-7-14.7-12.7-23.7-16.7c-5.7-2.5-30.3-12.7-30.8,0.4c-0.3,6.7,8.5,13.2,12.9,17c6.7,5.8,14.1,10.9,22,15
				c6.3,3.2,18.4,9.5,27.1,8.5c6.4,15.3,15.9,29.6,28.2,41.9c2.5,2.4,6.3-1.4,3.8-3.8c-11.8-11.7-20.8-25.3-26.9-39.9
				c1.6-1.1,2.9-2.6,3.8-4.8c33.8-6.5,60.3-32.2,67.1-66.6C1052.5,1754.3,1050.8,1752.8,1048.7,1753.2z"/>
			<path class="st5" d="M1025.5,1890.4c-2.2-1.4-3.8-3.4-4.6-5.9c-1.4-4.4-8.3-2.5-6.9,1.9c1.4,4.3,4.1,7.8,7.9,10.2
				C1025.8,1899.1,1029.4,1892.9,1025.5,1890.4z"/>
			<path class="st5" d="M1055.9,1834.4c-6.6,2.5-13.3,5.1-19.9,7.6c-4.3,1.6-2.4,8.6,1.9,6.9c6.6-2.5,13.3-5.1,19.9-7.6
				C1062,1839.7,1060.2,1832.8,1055.9,1834.4z"/>
			<path class="st5" d="M902.8,1088.3c1.9-0.2,3.6-1.5,3.6-3.6c0-1.8-1.6-3.8-3.6-3.6c-3,0.3-6,0.6-9,0.9c-1.9,0.2-3.6,1.5-3.6,3.6
				c0,1.8,1.6,3.8,3.6,3.6C896.8,1088.8,899.8,1088.6,902.8,1088.3z"/>
			<path class="st5" d="M786.4,1700.7c3.6,0.9,7.2,1.8,10.7,2.7c4.5,1.1,6.4-5.8,1.9-6.9c-3.6-0.9-7.2-1.8-10.7-2.7
				C783.8,1692.6,781.9,1699.6,786.4,1700.7z"/>
			<path class="st5" d="M845.6,1672.9c2.4-1.8,4.8-3.6,7.1-5.4c1.5-1.2,2.3-3.1,1.3-4.9c-0.9-1.5-3.3-2.5-4.9-1.3
				c-2.4,1.8-4.8,3.6-7.1,5.4c-1.5,1.2-2.3,3.1-1.3,4.9C841.6,1673.1,844.1,1674.1,845.6,1672.9z"/>
			<path class="st5" d="M831,1645.4c-0.3,3-0.6,6-0.9,9c-0.2,1.9,1.8,3.6,3.6,3.6c2.1,0,3.4-1.6,3.6-3.6c0.3-3,0.6-6,0.9-9
				c0.2-1.9-1.8-3.6-3.6-3.6C832.5,1641.9,831.2,1643.5,831,1645.4z"/>
			<path class="st5" d="M860.7,1683.2c-4.8,1.2-9.6,2.4-14.3,3.6c-4.5,1.1-2.6,8,1.9,6.9c4.8-1.2,9.6-2.4,14.3-3.6
				C867,1689,865.1,1682.1,860.7,1683.2z"/>
			<path class="st5" d="M558.8,1243.4c2.2,5.5,5.9,10,11.2,12.9c4,2.2,7.7-4,3.6-6.2c-3.5-1.9-6.4-4.9-7.9-8.6
				c-0.7-1.8-2.4-3.1-4.4-2.5C559.5,1239.5,558,1241.6,558.8,1243.4z"/>
			<linearGradient id="SVGID_28_" gradientUnits="userSpaceOnUse" x1="824.5881" y1="1401.3224" x2="802.1979" y2="1573.3735">
				<stop  offset="0" style="stop-color:#FF7C9E"/>
				<stop  offset="1" style="stop-color:#EF5E8B"/>
			</linearGradient>
			<path class="st34" d="M765.4,1553.2c-0.7,12,2.2,23.9,11.2,32.8c2.3,2.3,5.9,5.6,9.3,3.4c2.8-1.8,3.5-6.2,4.1-9.2
				c1.3-7.6,0.3-15.6-2.5-22.8c10.9,3,23.3,1,32.3-6c4.2-3.3,9.1-8,10-13.6c0.1-0.5-0.2-1-0.6-1.2c-9.3-4.3-19.1-7.3-29.4-7.5
				c-2,0-4,0.1-6,0.2c21.3-12.6,37.1-31.2,46.4-52.5c1.2,19,6.5,37.5,15.7,54.7c1,1.8,3.6,1.7,4.6,0c17.4-28.2,12.5-64-11.7-86.3
				c2.7-21.3-0.6-43.6-10.6-64.3c-1.5-3.1-6.1-0.4-4.6,2.7c9.2,19.1,12.3,39.6,10.1,59.2c-0.3,0.1-0.6,0.3-0.9,0.6
				c-20-12.9-45.3-14.4-66.9-3.9c-1.5,0.7-1.7,3.1-0.5,4.2c18.2,16.8,43.4,20.6,65.2,10.4c-0.2,2.4-0.4,4.8-0.5,7.3
				c-6.9,23.6-21.8,44.8-43.1,59.4c0.6-2.8,0.9-5.7,0.9-8.4c0.1-9.3-2.4-18.3-2.9-27.6c0-0.8-1.1-1.3-1.7-0.8
				c-12.7,10.8-27.1,24-28.9,41.2c-0.5-1.2-0.9-2.4-1.4-3.5c-1.3-3.2-2.9-6.4-4.8-9.3c-1.8-2.7-3.8-5.3-6-7.6
				c3.5,17.4,6.7,35.2,9.3,53.1C762.9,1556.5,764.2,1554.9,765.4,1553.2z"/>
			<path class="st5" d="M843.6,1711.6c5.6,1.4,11.2,0.7,16.2-2.1c4-2.3,0.4-8.5-3.6-6.2c-3.3,1.9-7,2.4-10.7,1.4
				C841.1,1703.5,839.2,1710.5,843.6,1711.6z"/>
			<linearGradient id="SVGID_29_" gradientUnits="userSpaceOnUse" x1="852.227" y1="914.4216" x2="831.5191" y2="1073.5449">
				<stop  offset="0" style="stop-color:#FF7C9E"/>
				<stop  offset="1" style="stop-color:#EF5E8B"/>
			</linearGradient>
			<path class="st35" d="M793.7,953.1c7.7-0.6,15.2-3.4,21.6-7.8c-0.4,11.3,4.6,22.9,13.5,29.9c4.2,3.3,9.9,6.9,15.5,6.6
				c0.5,0,0.9-0.4,1-0.9c1.7-8.5,2.3-17.2,1.2-25.7c18.1,23.5,19.3,53,13.9,82c-5.1-13.9-15.5-25.2-29.2-31.4c-1.8-0.8-4,0.1-4,2.3
				c-0.3,10.6,2.8,20.8,9.3,29.2c5,6.4,12.7,13.1,21.2,12c-3.1,12.2-7.1,24.2-11.3,35.4c-1.1,0.2-2,1.1-2.1,2.5c0,1.2,0,2.3-0.1,3.5
				c0,3.2,4.2,3.4,5.3,0.7c7.5-19.3,14.5-41,17.5-62.7c0.3,0,0.6-0.1,0.9-0.2c24.9-10.7,41.4-34.8,42.9-61.8c0.1-2.1-2.3-3.2-4-2.3
				c-17,9.3-30.3,23.5-38.4,40.7c-0.6-22-7.2-43-23.8-60.2c5.4,1.5,11.3,1.1,16.7-0.1c9-2.1,17.2-6.7,26.1-9.3
				c0.7-0.2,1-1.4,0.3-1.8c-13.5-9.8-29.7-20.7-46.9-18.3c1-0.7,2.1-1.5,3.1-2.2c2.8-2,5.5-4.3,7.9-6.8c3.4-3.6,6.4-7.8,8.7-12.2
				c-20.4,4-42.5,8.1-64.7,12.2c2.3,4.8,5.7,9.1,10,12.3c2.5,1.9,5.3,3.3,8.1,4.4c-11.8,2.2-22.7,7.8-29.2,18.6
				c-1.7,2.8-4,7.1-1.1,9.8C786.2,953.7,790.5,953.4,793.7,953.1z"/>
			<path class="st5" d="M796.3,1684.7c1.8-0.6,3.1-2.5,2.5-4.4c-0.3-0.9-0.6-1.8-0.9-2.7c-0.6-1.8-2.5-3.1-4.4-2.5
				c-1.8,0.6-3.1,2.5-2.5,4.4c0.3,0.9,0.6,1.8,0.9,2.7C792.5,1684,794.4,1685.4,796.3,1684.7z"/>
			<path class="st5" d="M576.5,1231.8c5,3.2,10.8,4.7,16.7,4.1c4.5-0.5,4.6-7.6,0-7.2c-4.8,0.5-9.1-0.5-13.1-3.1
				C576.2,1223.1,572.6,1229.3,576.5,1231.8z"/>
			<path class="st5" d="M598.7,1189.4c-5.2,3-10.4,5.9-15.5,8.9c-4,2.3-0.4,8.5,3.6,6.2c5.2-3,10.4-5.9,15.5-8.9
				C606.3,1193.3,602.7,1187.1,598.7,1189.4z"/>
			<path class="st5" d="M580.3,1164.4c-5.7,1.5-11.1,4-15.8,7.5c-3.7,2.7-0.1,8.9,3.6,6.2c4.3-3.2,8.9-5.4,14.1-6.8
				C586.7,1170.1,584.8,1163.2,580.3,1164.4z"/>
			<linearGradient id="SVGID_30_" gradientUnits="userSpaceOnUse" x1="661.9494" y1="987.0947" x2="646.0121" y2="1109.5601">
				<stop  offset="0" style="stop-color:#FF7C9E"/>
				<stop  offset="1" style="stop-color:#EF5E8B"/>
			</linearGradient>
			<path class="st36" d="M561.1,1108.3c12.6,7.8,28,7.9,43.1,4.8c0.4,0.1,0.8,0,1.3-0.1c0.2-0.1,0.4-0.2,0.7-0.3
				c12.3-2.7,24.3-7.4,34.4-11.6c0.9-0.4,1.8-0.8,2.7-1.2c1.4,0.1,2.9,0.2,4.3,0.3c7.2,27.7,46.4,30.9,70.1,30
				c2.2-0.1,3.7-3,1.9-4.6c-19-16.9-42.3-27.4-67.3-30.3c15.9-9.3,28.9-23.4,31.1-42.3c1.9,10.2,6.6,19.6,15.5,26
				c2.6,1.9,6.7,4.6,9.7,1.9c2.5-2.3,2.5-6.6,2.6-9.7c0.1-7.7-2.1-15.5-6-22.1c11.2,1.3,23.2-2.7,30.9-11c3.7-4,7.7-9.3,7.8-15
				c0-0.5-0.3-0.9-0.8-1c-9.8-2.8-20.1-4.2-30.3-2.8c-2,0.3-4,0.7-6,1.2c2.2-5.4,2.3-11.6,1.5-17.3c-1.3-9.2-5.3-17.7-7.1-26.8
				c-0.2-0.8-1.3-1.1-1.8-0.5c-10.8,12.7-23,27.9-22.1,45.2c-0.7-1.1-1.3-2.2-1.9-3.3c-1.8-3-3.8-5.8-6.2-8.4
				c-4.9-5.5-10.9-9.9-17.6-13c-3.2-1.5-6.5-2.6-9.9-3.5c-2.5-0.6-6.7-2.1-8.3,0.9c-1.3,2.5-0.3,6.4,0.2,9c0.6,3.3,1.7,6.5,3,9.6
				c2.7,6.2,6.7,11.8,11.6,16.4c3.5,3.2,7.4,6,11.7,8.1c-7,4.4-12.8,10.8-16.4,18.3c-1.4,3-3.9,7.7-0.6,10.3c3,2.3,8.1,2.1,11.6,1.8
				c8.5-0.7,16.8-4.5,22.6-10.9c-3.9,18-19.1,30.5-35.6,38.2c-0.1,0-0.1,0.1-0.2,0.1c-2.3,1.1-4.6,2-6.9,2.9
				c-4.7,1.8-9.9,3.7-15.2,5.5c9.9-12.4,9.5-31.7,7.8-47.6c-0.3-2.6-3.4-3.7-5-1.4c-11.2,16.6-19.1,34.8-23.5,54.3
				c-12.3,2-24.5,1.4-34.9-4.9C560.8,1101.9,558.1,1106.5,561.1,1108.3z"/>
			<path class="st5" d="M810.6,1651.6c-0.9-3.9-1.8-7.8-2.7-11.6c-1-4.5-8-2.6-6.9,1.9c0.9,3.9,1.8,7.8,2.7,11.6
				C804.8,1658,811.7,1656.1,810.6,1651.6z"/>
			<linearGradient id="SVGID_31_" gradientUnits="userSpaceOnUse" x1="1312.0632" y1="1236.5688" x2="1298.8158" y2="1338.3651">
				<stop  offset="0" style="stop-color:#FF7C9E"/>
				<stop  offset="1" style="stop-color:#EF5E8B"/>
			</linearGradient>
			<path class="st37" d="M1328.9,1305.3c-1.3-4.2-2.9-8.4-4.5-12.2l0,0l-0.2-0.5c-0.2-0.4-0.3-0.8-0.5-1.2c0,0,0,0-0.1-0.1l-1-2.3
				c0,0,0,0,0,0c-0.3-0.6-0.5-1.2-0.8-1.8l0-0.1l0,0c-1.2-2.7-2.2-4.8-2.8-6c-0.3,0.2-0.5,0.3-0.8,0.5c-0.9-0.4-1.7-0.8-2.6-1.2
				c-11.4-17.2-19.1-37-22.3-58.3c-0.5-3.4-5.7-2-5.2,1.4c3.2,21.3,10.9,41.1,22.1,58.5c-0.1,0.9,0.3,1.8,1.3,2.4
				c0.1,0.1,0.2,0.1,0.3,0.2c0.3,0.5,0.6,0.9,0.9,1.3c-9.7,20.4-16.3,44.8-1.4,64.5c1.2,1.6,3.5,1.9,4.6,0
				c9.3-15.8,11.7-34,7.2-51.2C1325,1301.3,1326.9,1303.3,1328.9,1305.3z"/>
		</g>
		<linearGradient id="SVGID_32_" gradientUnits="userSpaceOnUse" x1="1320.7982" y1="645.2214" x2="1121.4636" y2="1072.2306">
			<stop  offset="0" style="stop-color:#9B533D"/>
			<stop  offset="1" style="stop-color:#8E4332"/>
		</linearGradient>
		<path class="st38" d="M1562.6,873c-16.9-24.4-40.9-40.1-65.6-55.6c-13-8.2-26.9-17.6-38.2-29.1c-6.8-26.6-1.7-55.9,5.6-82
			c9.1-32.8,21.4-64.6,24.7-98.7c6.7-67.9-16.4-137.3-61.5-188.2c-0.9-1-1.9-1.7-2.9-2.1c-116.4-80.3-288.9-78-390.5,26.2
			c-23.8,24.4-40.2,53.2-55.4,83.4c-9.9,19.5-19.9,40.1-33.5,57.6c-17.4,9.6-36.2,16.5-54.8,24.6c-23.1,10-46.8,24.7-57.5,48.6
			c-12.3,27.5-4,58,5.9,84.8c6.1,16.4,13.1,32.8,16.1,50.1c0.5,3,0.9,6.4,1,10c-3.1,12.9-9.9,24.5-21.8,31.6
			c-16.7,9.9-37.2,10.7-55.4,16.6c-29.2,9.5-50.9,32.6-59.2,61.3c-1.1,3.7,2.1,7.3,6,6.7l68.2-11.9c3.8,4,7.2,9.8,9.5,12.4
			c3.8,4.2,8,8,12.5,11.5c10.1,7.8,21.7,13.6,33.9,17.2c22.9,6.6,53.8,6.6,72.7-10.1c21.6-19.1,18.7-53.8,15.4-79.4
			c-2.4-18.8-6.2-37.9-6.8-56.9c4.5-20,10.5-39.8,16.8-59.2c9-27.7,17.2-56.8,32.2-82c0.8-1.3,1.6-2.5,2.4-3.8
			c26.3-18,61.9-27,89.6-37.8c29-11.3,57.3-26.6,79.2-48.2c13.7-7.7,26.7-16.5,39.5-25.9c12-8.7,24.5-18.3,37.6-27.5
			c0.7-0.1,1.5-0.5,2.1-1.1c0.8-0.7,1.6-1.4,2.4-2.1c7.7-5.3,15.6-10.5,23.6-15.2c21.7-10.3,46.6-13.3,70.6-7.3
			c31.7,7.9,59.8,29.9,63.4,63c2.2,40.8-8.3,83.8-14.6,123.2c-9.1,57.3-9.1,127.1,41.1,166.6c3.4,2.7,6.9,5,10.5,7
			c3.2,3.3,6.6,6.5,10.2,9.5c8.8,7.4,19.2,14.8,27.8,23.4c6.4,10.8,9.8,22.6,6.9,35.3c-3,13.2-12.3,24-20.5,34.3
			c-7.7,9.7-15.2,19.6-21,30.6c-10.9,20.6-15.9,45.4-6.5,67.5c9.3,22,31.7,31.4,48.4,46.7c11,10.1,19,23.3,22.8,37.8
			c1.9,7.3,3.3,15.6,1.7,23.1c-1.7,8.6-9.8,17.6-18.8,13.2c-4.3-4.7-13-2.8-14.3,2.8c-2,1.9-3.1,4.6-2.9,7.1
			c-8.6,11.6-2.7,25.7,7.6,34.5c12.7,10.8,30.6,17.7,47,11.8c25.2-9.2,31.6-32.9,31.3-57c4.4-11.6,5.6-24.8,4.3-36.8
			c-1.5-14-6.1-27-11.4-39.8c0-0.7-0.2-1.5-0.7-2.3c-0.3-0.5-0.6-1-0.9-1.5c-6.7-16.1-14.1-32-17.4-49.2c-0.4-1.9-0.6-3.8-0.8-5.6
			c1.8-12,8.7-21.7,19.7-29.5c10.8-7.7,20.9-14.8,28.4-26c7-10.5,11.3-22.7,13-35.1C1585.1,919.9,1577.3,894.3,1562.6,873z
			 M835.8,690c-0.8-34.9,23.9-56.9,53.3-70.6c13.1-6.1,26.4-11.2,39.4-16.9c-2,1.8-4,3.5-6.2,5.1c-13.4,10.2-29.3,16.3-42.8,26.3
			c-13.5,10-22.8,23.6-27.2,39.9c-8.5,31.4,1.8,61.8,5.1,92.9C848.9,741.3,836.4,717,835.8,690z M915.5,931.6
			c-20.9,17.1-55.8,12.6-78.3,1.6c-11.6-5.7-21.9-13.6-30.1-23.6c-0.6-0.7-1.1-1.4-1.6-2.1c2.9,0.7,6.3,1.7,9.8,3.4
			c2.4,1.1,4.8,2.2,7.2,3.2c8,3.1,15.8,6.9,22.7,9.4c19.9,7.3,42.1,9.7,58.7-6.1c22.1-20.9,18.4-54,21.5-81.5
			c0.1-0.5,0.1-1.1,0.2-1.6c0.3,2.1,0.6,4.2,0.9,6.2C930.3,867.4,940.2,911.3,915.5,931.6z M1045.6,618.4
			c-15.3,5.3-31.9,11.1-47.5,18.8c12.1-11.6,26.8-20.2,43.1-26.6c24.5-9.5,50.3-15.1,75-24.1
			C1094.4,600.2,1069.6,610.2,1045.6,618.4z M1402.6,722.6c-4.7,26.3-7.7,53.2-1.9,79.6c1.4,6.3,3.4,12.3,5.8,18
			c-7.9-9.9-14.1-21.3-18.6-34.2c-24.1-70.1,10.3-143.4,11.8-214.3c0.1-3.2,0-6.4,0-9.7c0-0.2,0.1-0.4,0.1-0.6
			c0-2.7-0.2-5.3-0.4-7.9c-0.2-3.6-0.5-7.2-0.9-10.8c9.4,30,14.4,61.3,14.6,92.9C1413.2,665.1,1407.7,693.5,1402.6,722.6z
			 M1460.1,1077.4c-12.3-8.9-24.2-18.4-29.1-33.4c-4.8-14.9-2.7-31.2,3-45.5c6.2-15.6,16.5-29,26.8-41.9
			c8.1-10.2,16.4-20.8,19.8-33.6c0.7-2.6,1.1-5.1,1.4-7.6c1.7,19.1-9.7,37.9-17.3,54.8c-10.2,22.5-15.6,45.1-6.5,69.1
			c11,28.9,35.6,49.5,47.4,77.8c5.6,13.5,8.4,30.6,0.6,43.9c-0.1,0.2-0.3,0.4-0.4,0.7c1.4-6.8,0.8-14.2-0.3-20.8
			C1500.9,1112.3,1482.6,1093.5,1460.1,1077.4z M1537.6,1188.2c-1.9,9.3-5.9,17.9-13.6,25c-10.1,9.4-23.3,10.6-35.7,5.3
			c-9.6-4.1-29.1-17.5-20.6-29.9c0.4,0.2,0.8,0.3,1.2,0.5c0.9,0.3,1.7,0.9,2.3,1.6c11.4,13.1,31.3,17,48.2,10.5
			C1526.8,1198.3,1532.8,1193.8,1537.6,1188.2z M1572.7,944.7c-2.1,14.2-7.9,28.2-17.6,38.9c-9.5,10.4-23.1,16-32.6,26.4
			c1.9-6.1,4.7-11.9,8.7-17.7c8.3-12,18.2-22.9,22.4-37.2c8.6-29.4-7.5-59.4-26.5-81c-20-22.7-46.8-39.9-61.2-67.2
			c-0.1-0.1-0.1-0.2-0.2-0.4c25.1,19.6,56.7,34.8,76.5,55.5C1563.2,884.2,1577.2,913.9,1572.7,944.7z"/>
		<g>
			<path class="st39" d="M1217.5,802.7l-10.5-23l-23.4,7l-7-23.4l-25,3.9l-14.8,1.8l-11.5-6.2c0,0-4.1,45.7,35.2,66.8
				c36.2,19.5,75.2-7.4,75.2-7.4l-11.5-6.2L1217.5,802.7z"/>
			<path class="st40" d="M1184.7,782.6l-17.6-9.5l-16.3,4.4c0,0,9.6,12.1,26.3,21.2c16.8,9,29.2,7.9,29.2,7.9l-4.7-14.8
				L1184.7,782.6z"/>
			<path class="st41" d="M1197.6,773.3c-4.5,0.5-8.8-1.8-10.9-5.7c-2-3.7-6-7.3-13.7-8.5c-17.6-2.7-34.4,10.9-47.8,3.7
				c0,0,22.6,17.1,34.4,16.3c11.9-0.9,22.9,9.4,22.9,9.4s14.7,3.5,20.5,13.9c5.8,10.4,32.5,19.8,32.5,19.8
				c-13.4-7.2-11.6-29.2-23.5-42.4C1206.9,774.1,1201.8,772.9,1197.6,773.3z"/>
		</g>
		<g>
			<circle class="st3" cx="1177.7" cy="626.3" r="71.2"/>
			<circle class="st3" cx="1340.8" cy="723.8" r="71.2"/>
			<polygon class="st5" points="1102.5,607.5 1248.9,594.1 1254.8,626.3 1106.5,642.3 			"/>
			<polygon class="st5" points="1109.4,652.7 1255,636.3 1249.9,646.5 1114.3,662.4 			"/>
			<polygon class="st5" points="1265.7,703 1412.1,689.6 1417.9,721.8 1269.7,737.8 			"/>
			<polygon class="st5" points="1272.5,748.2 1418.1,731.9 1417.9,741.5 1277.4,757.9 			"/>
			<path class="st42" d="M1340.8,642.3c-23.1,0-44,9.7-58.8,25.2c-7.5-7.7-18.9-12.6-26.9-15.3c2.7-8.1,4.2-16.8,4.2-25.8
				c0-44.9-36.6-81.5-81.5-81.5s-81.5,36.6-81.5,81.5c0,44.9,36.6,81.5,81.5,81.5c30.2,0,56.5-16.5,70.6-40.9
				c9,2.9,19.4,7.9,23.5,13.5c-8,12.6-12.6,27.5-12.6,43.4c0,44.9,36.6,81.5,81.5,81.5c44.9,0,81.5-36.6,81.5-81.5
				C1422.3,678.8,1385.7,642.3,1340.8,642.3z M1177.7,691.7c-36,0-65.4-29.3-65.4-65.4s29.3-65.4,65.4-65.4
				c36,0,65.4,29.3,65.4,65.4S1213.8,691.7,1177.7,691.7z M1340.8,789.1c-36,0-65.4-29.3-65.4-65.4c0-36,29.3-65.4,65.4-65.4
				c36,0,65.4,29.3,65.4,65.4C1406.1,759.8,1376.8,789.1,1340.8,789.1z"/>
		</g>
	</g>
</g>
</svg>
